<?xml version="1.0" encoding="utf-8"?>
<!-- Generator: Adobe Illustrator 22.1.0, SVG Export Plug-In . SVG Version: 6.00 Build 0)  -->
<svg version="1.1" id="Layer_1" xmlns="http://www.w3.org/2000/svg" xmlns:xlink="http://www.w3.org/1999/xlink" x="0px" y="0px"
	 viewBox="0 0 25 36" style="enable-background:new 0 0 25 36;" xml:space="preserve">
<style type="text/css">
	.st0{fill:#0A0A0A;}
</style>
<g>
	<g>
		<g>
			<g>
				<path d="M9.3,20.8c-0.1,0-0.2,0-0.2-0.1c-0.2-0.1-0.2-0.4-0.1-0.5c0.8-1.1,2.1-1.7,3.5-1.7s2.7,0.6,3.5,1.7
					c0.1,0.2,0.1,0.4-0.1,0.5c-0.2,0.1-0.4,0.1-0.5-0.1c-0.7-0.9-1.7-1.4-2.9-1.4s-2.2,0.5-2.9,1.4C9.5,20.7,9.4,20.8,9.3,20.8z"/>
				<path class="st0" d="M15.7,20.9c-0.1,0-0.3-0.1-0.4-0.2c-0.7-0.9-1.7-1.4-2.8-1.4s-2.1,0.5-2.8,1.4c-0.1,0.2-0.3,0.2-0.4,0.2
					c-0.1,0-0.2,0-0.3-0.1c-0.1-0.1-0.2-0.2-0.2-0.4c0-0.1,0-0.3,0.1-0.4c0.9-1.1,2.2-1.8,3.6-1.8s2.7,0.6,3.6,1.8
					c0.1,0.1,0.1,0.2,0.1,0.4c0,0.1-0.1,0.3-0.2,0.3C15.9,20.9,15.8,20.9,15.7,20.9z M12.5,19.1c1.2,0,2.3,0.5,3,1.5
					c0.1,0.1,0.2,0.1,0.4,0c0.1,0,0.1-0.1,0.1-0.2c0-0.1,0-0.1-0.1-0.2c-0.8-1.1-2.1-1.7-3.4-1.7s-2.6,0.6-3.4,1.7
					c0,0.1-0.1,0.1-0.1,0.2c0,0.1,0,0.1,0.1,0.2c0,0,0.1,0,0.2,0c0.1,0,0.2,0,0.2-0.1C10.2,19.6,11.3,19.1,12.5,19.1z"/>
			</g>
		</g>
		<g>
			<g>
				<path d="M12.5,34.9c-1.3,0-2.4-1.1-2.4-2.4v-9.6c0-1.3,1.1-2.4,2.4-2.4s2.4,1.1,2.4,2.4v9.6C14.9,33.8,13.8,34.9,12.5,34.9z
					 M12.5,21.2c-0.9,0-1.7,0.7-1.7,1.7v9.6c0,0.9,0.7,1.7,1.7,1.7s1.7-0.7,1.7-1.7v-9.6C14.2,22,13.4,21.2,12.5,21.2z"/>
				<path class="st0" d="M12.5,35c-1.4,0-2.5-1.1-2.5-2.5v-9.6c0-1.4,1.1-2.6,2.5-2.6s2.5,1.1,2.5,2.6v9.6C15,33.9,13.9,35,12.5,35z
					 M12.5,20.6c-1.3,0-2.3,1-2.3,2.3v9.6c0,1.3,1,2.3,2.3,2.3s2.3-1,2.3-2.3v-9.6C14.8,21.6,13.8,20.6,12.5,20.6z M12.5,34.3
					c-1,0-1.8-0.8-1.8-1.8v-9.6c0-1,0.8-1.8,1.8-1.8s1.8,0.8,1.8,1.8v9.6C14.3,33.5,13.5,34.3,12.5,34.3z M12.5,21.3
					c-0.9,0-1.6,0.7-1.6,1.6v9.6c0,0.9,0.7,1.6,1.6,1.6c0.9,0,1.6-0.7,1.6-1.6v-9.6C14.1,22,13.4,21.3,12.5,21.3z"/>
			</g>
		</g>
		<g>
			<g>
				<path d="M12.5,9c-0.3,0-0.6-0.1-0.7-0.4L8.5,4.2H7.2V5c0,0.2-0.2,0.4-0.4,0.4C6.6,5.3,6.4,5.2,6.4,5V3.7c0-0.2,0.2-0.4,0.4-0.4
					h1.9c0.1,0,0.2,0.1,0.3,0.2l3.4,4.6c0,0.1,0.1,0.1,0.1,0.1c0,0,0.1,0,0.1-0.1L16,3.5c0.1-0.1,0.2-0.2,0.3-0.2h1.9
					c0.2,0,0.4,0.2,0.4,0.4v1.3c0,0.2-0.2,0.4-0.4,0.4c-0.2,0-0.4-0.2-0.4-0.4V4.2h-1.3l-3.3,4.5C13.1,8.8,12.8,9,12.5,9z"/>
				<path class="st0" d="M12.5,9.1c-0.3,0-0.7-0.2-0.8-0.4L8.4,4.3H7.3V5c0,0.3-0.2,0.5-0.5,0.5C6.5,5.5,6.3,5.2,6.3,5V3.7
					c0-0.3,0.2-0.5,0.5-0.5h1.8c0.2,0,0.3,0.1,0.4,0.2l3.4,4.6l0,0l0,0l0,0l3.4-4.6c0.1-0.1,0.2-0.2,0.4-0.2h1.8
					c0.3,0,0.5,0.2,0.5,0.5v1.3c0,0.3-0.2,0.5-0.5,0.5c-0.3,0-0.5-0.2-0.5-0.5V4.3h-1.1l-3.3,4.4C13.1,8.9,12.8,9.1,12.5,9.1z
					 M7.1,4h1.5l0,0.1l3.3,4.4c0.1,0.2,0.4,0.3,0.6,0.3c0.3,0,0.5-0.1,0.6-0.3L16.5,4h1.5v1.1c0,0.1,0.1,0.2,0.2,0.2
					c0.1,0,0.2-0.1,0.2-0.2V3.7c0-0.1-0.1-0.2-0.2-0.2h-1.8c-0.1,0-0.1,0-0.2,0.1l-3.4,4.6c0,0.1-0.1,0.1-0.2,0.1
					c-0.1,0-0.2,0-0.2-0.1L8.9,3.6C8.8,3.5,8.7,3.5,8.7,3.5H6.8c-0.1,0-0.2,0.1-0.2,0.2V5c0,0.1,0.1,0.2,0.2,0.2
					c0.1,0,0.2-0.1,0.2-0.2V4z"/>
			</g>
		</g>
		<g>
			<g>
				<path d="M16.3,4.2c-0.1,0-0.3-0.1-0.3-0.2c0-0.1-1.1-2-3.5-2S9,3.9,9,3.9C8.9,4.1,8.6,4.2,8.5,4.1C8.3,4,8.2,3.7,8.3,3.6
					c0.1-0.1,1.3-2.4,4.2-2.4s4.1,2.3,4.2,2.4c0.1,0.2,0,0.4-0.2,0.5C16.5,4.1,16.4,4.2,16.3,4.2z"/>
				<path class="st0" d="M16.3,4.3c-0.2,0-0.4-0.1-0.5-0.3c0,0-1-1.9-3.4-1.9c-1.4,0-2.6,0.7-3.4,1.8c0,0,0,0,0,0.1
					C8.9,4.2,8.6,4.3,8.4,4.2C8.2,4.1,8.1,3.8,8.2,3.5l0,0c0.3-0.6,1.7-2.4,4.3-2.4c2.8,0,4.2,2.1,4.3,2.4c0.1,0.1,0.1,0.2,0,0.3
					c0,0.1-0.1,0.2-0.2,0.3C16.5,4.2,16.4,4.3,16.3,4.3z M12.5,1.8c2.4,0,3.5,1.8,3.6,2.1C16.2,4,16.2,4,16.3,4v0l0.1,0
					c0.1,0,0.1-0.1,0.1-0.2c0-0.1,0-0.1,0-0.2c0,0-1.2-2.3-4.1-2.3c-2.5,0-3.7,1.7-4,2.3l0,0c0,0.1,0,0.3,0.1,0.3
					c0.1,0,0.3,0,0.3-0.1l0-0.1c0,0,0,0,0,0C9.8,2.5,11.1,1.8,12.5,1.8z"/>
			</g>
		</g>
		<g>
			<g>
				<path d="M8.7,14.9c-0.1,0-0.2-0.1-0.3-0.2l-3.3-4.4C5,10.1,5,10,5.1,9.8l1-1.5c0.1-0.2,0.3-0.2,0.5-0.1c0.2,0.1,0.2,0.3,0.1,0.5
					L5.9,10L9,14.2c0.1,0.2,0.1,0.4-0.1,0.5C8.8,14.9,8.7,14.9,8.7,14.9z"/>
				<path class="st0" d="M8.7,15c-0.1,0-0.3-0.1-0.4-0.2L5,10.4c-0.1-0.2-0.1-0.4,0-0.6l1-1.5C6.1,8.1,6.4,8,6.7,8.1
					C6.9,8.3,7,8.6,6.9,8.9L6.1,10l3,4.1c0.1,0.1,0.1,0.2,0.1,0.4c0,0.1-0.1,0.3-0.2,0.3C8.8,15,8.7,15,8.7,15z M6.4,8.3
					c-0.1,0-0.2,0-0.2,0.1l-1,1.5c-0.1,0.1-0.1,0.2,0,0.3l3.3,4.4c0,0.1,0.1,0.1,0.2,0.1c0.1,0,0.1,0,0.2-0.1c0,0,0.1-0.1,0.1-0.2
					c0-0.1,0-0.1-0.1-0.2L5.7,10l0.9-1.3c0.1-0.1,0-0.3-0.1-0.4C6.5,8.3,6.5,8.3,6.4,8.3z"/>
			</g>
		</g>
		<g>
			<g>
				<path d="M9.8,11.2c-0.1,0-0.2,0-0.3-0.1L5.1,5.3H3V7h2c0.2,0,0.4,0.2,0.4,0.4c0,0.2-0.2,0.4-0.4,0.4H2.7c-0.2,0-0.4-0.2-0.4-0.4
					V4.9c0-0.2,0.2-0.4,0.4-0.4h2.6c0.1,0,0.2,0.1,0.3,0.1l4.5,5.8c0.1,0.2,0.1,0.4-0.1,0.5C10,11.1,9.9,11.2,9.8,11.2z"/>
				<path class="st0" d="M9.8,11.3c-0.1,0-0.3,0-0.4-0.2L5,5.5H3.2v1.4H5c0.3,0,0.5,0.2,0.5,0.5S5.3,7.8,5,7.8H2.7
					c-0.3,0-0.5-0.2-0.5-0.5V4.9c0-0.3,0.2-0.5,0.5-0.5h2.6c0.1,0,0.3,0.1,0.4,0.2l4.6,5.8c0.2,0.2,0.1,0.5-0.1,0.7
					C10,11.2,9.9,11.3,9.8,11.3z M2.9,5.2h2.2l0,0l4.4,5.7C9.6,11,9.7,11,9.8,11c0.1,0,0.1,0,0.1-0.1c0.1-0.1,0.1-0.3,0.1-0.4
					L5.5,4.8c0,0-0.1-0.1-0.2-0.1H2.7c-0.1,0-0.2,0.1-0.2,0.2v2.4c0,0.1,0.1,0.2,0.2,0.2H5c0.1,0,0.2-0.1,0.2-0.2
					c0-0.1-0.1-0.2-0.2-0.2H2.9V5.2z"/>
			</g>
		</g>
		<g>
			<g>
				<path d="M16.4,14.9c-0.1,0-0.2,0-0.2-0.1c-0.2-0.1-0.2-0.4-0.1-0.5l3-4.2l-0.8-1.2c-0.1-0.2-0.1-0.4,0.1-0.5
					c0.2-0.1,0.4-0.1,0.5,0.1l1,1.5c0.1,0.1,0.1,0.3,0,0.4l-3.2,4.4C16.6,14.8,16.5,14.9,16.4,14.9z"/>
				<path class="st0" d="M16.4,15c-0.1,0-0.2,0-0.3-0.1c-0.2-0.2-0.3-0.5-0.2-0.7l3-4.1l-0.8-1.2c-0.1-0.1-0.1-0.3-0.1-0.4
					c0-0.1,0.1-0.2,0.2-0.3C18.6,8,18.9,8.1,19,8.3l1,1.5c0.1,0.2,0.1,0.4,0,0.6l-3.2,4.5C16.7,14.9,16.6,15,16.4,15z M18.6,8.4
					c0,0-0.1,0-0.1,0c-0.1,0-0.1,0.1-0.1,0.1c0,0.1,0,0.1,0,0.2l0.9,1.3l-3.1,4.3c-0.1,0.1,0,0.3,0.1,0.4c0,0,0.1,0,0.2,0
					c0.1,0,0.1,0,0.2-0.1l3.2-4.4c0.1-0.1,0.1-0.2,0-0.3l-1-1.5C18.8,8.4,18.7,8.4,18.6,8.4z"/>
			</g>
		</g>
		<g>
			<g>
				<path d="M15.2,11.2c-0.1,0-0.2,0-0.2-0.1c-0.2-0.1-0.2-0.4-0.1-0.5l4.5-5.8c0.1-0.1,0.2-0.1,0.3-0.1h2.6c0.2,0,0.4,0.2,0.4,0.4
					v2.4c0,0.2-0.2,0.4-0.4,0.4H20c-0.2,0-0.4-0.2-0.4-0.4C19.6,7.2,19.8,7,20,7h2V5.4h-2.1L15.5,11C15.4,11.1,15.3,11.2,15.2,11.2z
					"/>
				<path class="st0" d="M15.2,11.3c-0.1,0-0.2,0-0.3-0.1c-0.2-0.2-0.3-0.5-0.1-0.7l4.5-5.8c0.1-0.1,0.2-0.2,0.4-0.2h2.6
					c0.3,0,0.5,0.2,0.5,0.5v2.4c0,0.3-0.2,0.5-0.5,0.5H20c-0.3,0-0.5-0.2-0.5-0.5c0-0.3,0.2-0.5,0.5-0.5h1.9V5.5H20l-4.4,5.6
					C15.5,11.2,15.4,11.3,15.2,11.3z M19.7,4.7c-0.1,0-0.2,0-0.2,0.1L15,10.6c0,0.1-0.1,0.1-0.1,0.2c0,0.1,0,0.1,0.1,0.2
					c0,0,0.1,0,0.2,0c0.1,0,0.1,0,0.2-0.1l4.5-5.7h2.2v1.9H20c-0.1,0-0.2,0.1-0.2,0.2c0,0.1,0.1,0.2,0.2,0.2h2.4
					c0.1,0,0.2-0.1,0.2-0.2V5c0-0.1-0.1-0.2-0.2-0.2H19.7z"/>
			</g>
		</g>
		<g>
			<g>
				<path d="M16.8,28h-2.3c-0.2,0-0.4-0.2-0.4-0.4c0-0.2,0.2-0.4,0.4-0.4h2l3.6-10.1v-4.3l-1.5-1.5c-0.1-0.1-0.1-0.4,0-0.5
					c0.1-0.1,0.4-0.1,0.5,0l1.6,1.6c0.1,0.1,0.1,0.2,0.1,0.3v4.5c0,0,0,0.1,0,0.1l-3.7,10.4C17.1,27.9,17,28,16.8,28z"/>
				<path class="st0" d="M16.8,28.2h-2.3c-0.3,0-0.5-0.2-0.5-0.5c0-0.3,0.2-0.5,0.5-0.5h1.9l3.5-10V13l-1.4-1.4
					c-0.2-0.2-0.2-0.5,0-0.7c0.2-0.2,0.5-0.2,0.7,0l1.6,1.6c0.1,0.1,0.1,0.2,0.1,0.4v4.5c0,0,0,0.1,0,0.2l-3.7,10.4
					C17.2,28,17,28.2,16.8,28.2z M14.6,27.4c-0.1,0-0.2,0.1-0.2,0.2c0,0.1,0.1,0.2,0.2,0.2h2.3c0.1,0,0.2-0.1,0.2-0.1l3.7-10.5l0,0
					c0,0,0,0,0,0v-4.5c0-0.1,0-0.1-0.1-0.2L19.1,11c-0.1-0.1-0.3-0.1-0.4,0c-0.1,0.1-0.1,0.3,0,0.4l1.5,1.5l0,4.4l-3.6,10.2H14.6z"
					/>
			</g>
		</g>
		<g>
			<g>
				<path d="M10.4,28H8.2c-0.2,0-0.3-0.1-0.4-0.2L4.2,17.4c0,0,0-0.1,0-0.1v-4.4c0-0.1,0-0.2,0.1-0.3l1.6-1.6c0.1-0.1,0.4-0.1,0.5,0
					c0.1,0.1,0.1,0.4,0,0.5l-1.5,1.5v4.2l3.6,10.1h2c0.2,0,0.4,0.2,0.4,0.4C10.8,27.8,10.6,28,10.4,28z"/>
				<path class="st0" d="M10.4,28.2H8.2c-0.2,0-0.4-0.1-0.5-0.3L4,17.4c0,0,0-0.1,0-0.1v-4.4c0-0.1,0-0.3,0.1-0.4l1.6-1.6
					c0.2-0.2,0.5-0.2,0.7,0c0.2,0.2,0.2,0.5,0,0.7L5,13v4.2l3.5,10h1.9c0.3,0,0.5,0.2,0.5,0.5C10.9,27.9,10.7,28.2,10.4,28.2z
					 M4.3,17.3l3.7,10.4c0,0.1,0.1,0.2,0.2,0.2h2.3c0.1,0,0.2-0.1,0.2-0.3c0-0.1-0.1-0.2-0.2-0.2H8.4l0-0.1L4.8,17.2v-4.3l1.5-1.5
					c0.1-0.1,0.1-0.3,0-0.4c-0.1-0.1-0.3-0.1-0.4,0l-1.6,1.6c0,0-0.1,0.1-0.1,0.2v4.4C4.2,17.3,4.3,17.3,4.3,17.3
					C4.3,17.3,4.3,17.3,4.3,17.3z"/>
			</g>
		</g>
	</g>
	<g>
		<path d="M8.7,15c0,0,0.1,0,0.1,0l3.3-1c0.1,0,0.3-0.2,0.3-0.3c0-0.1,0-0.3-0.1-0.4L9.8,10C9.6,9.8,9.3,9.8,9.1,9.9
			c-0.2,0.2-0.2,0.4-0.1,0.6l2.2,2.7l-2.7,0.8c-0.2,0.1-0.4,0.3-0.3,0.6C8.3,14.9,8.5,15,8.7,15z"/>
	</g>
	<g>
		<path d="M16.3,15c0,0-0.1,0-0.1,0l-3.3-1c-0.1,0-0.3-0.2-0.3-0.3c0-0.1,0-0.3,0.1-0.4l2.6-3.2c0.2-0.2,0.4-0.2,0.6-0.1
			c0.2,0.2,0.2,0.4,0.1,0.6l-2.2,2.7l2.7,0.8c0.2,0.1,0.4,0.3,0.3,0.6C16.7,14.9,16.5,15,16.3,15z"/>
	</g>
</g>
</svg>
