<?xml version="1.0" encoding="utf-8"?>
<!-- Generator: Adobe Illustrator 22.1.0, SVG Export Plug-In . SVG Version: 6.00 Build 0)  -->
<svg version="1.1" id="Layer_1" xmlns="http://www.w3.org/2000/svg" xmlns:xlink="http://www.w3.org/1999/xlink" x="0px" y="0px"
	 viewBox="0 0 25 36" style="enable-background:new 0 0 25 36;" xml:space="preserve">
<style type="text/css">
	.st0{fill:#FFFFFF;}
</style>
<g>
	<path d="M20.2,25.6H3.4V4.2h16.8v21.3h1.2V2.1c0-0.9-0.8-1.6-1.8-1.6H4c-1,0-1.8,0.7-1.8,1.6v28.2c0,0.9,0.8,1.6,1.8,1.6h15.6
		c1,0,1.8-0.7,1.8-1.6V23h-1.2V25.6z M4,1.5h15.6c0.4,0,0.6,0.2,0.6,0.5v1H3.4v-1C3.4,1.8,3.7,1.5,4,1.5z M19.6,30.8H4
		c-0.4,0-0.6-0.2-0.6-0.5v-3.7h16.8v3.7C20.2,30.6,20,30.8,19.6,30.8z"/>
	<path d="M11.8,26.5c-1,0-1.8,0.8-1.8,1.8s0.8,1.8,1.8,1.8s1.8-0.8,1.8-1.8S12.8,26.5,11.8,26.5z M11.8,28.9c-0.4,0-0.6-0.2-0.6-0.6
		s0.2-0.6,0.6-0.6s0.6,0.2,0.6,0.6S12.2,28.9,11.8,28.9z"/>
	<g>
		<g id="XMLID_2_">
			<g>
				<path d="M10.9,34.5l9.4,0c0.1,0,0.3,0,0.4-0.2c0.1-0.1,0.1-0.2,0.1-0.3v-1.8c0-0.3-0.2-0.5-0.5-0.5l-9.4,0
					c-0.3,0-0.5,0.2-0.5,0.5l0,1.8C10.4,34.2,10.7,34.5,10.9,34.5z M22.8,26.5c0,1.4-0.5,2.7-1.3,3.7c-0.2,0.2-0.4,0.4-0.6,0.6
					c0.6,0.2,1.1,0.8,1.1,1.4V34c0,0.4-0.2,0.8-0.5,1.1c-0.3,0.3-0.7,0.4-1.1,0.4l-9.4,0c-0.9,0-1.6-0.7-1.6-1.5v-1.8
					c0-0.8,0.6-1.4,1.3-1.5c-0.4-0.5-0.8-1.1-1.2-2c-0.2-0.4-0.6-1.2-0.7-1.4c-0.2-0.4-0.4-0.8-0.6-1.1c-0.3-0.6-0.4-1-0.9-1.3
					c-0.1-0.1-0.2-0.2-0.4-0.3c-0.3-0.2-0.5-0.3-0.8-0.5C6,24,5.8,23.9,5.6,23.8c-0.3-0.2-0.7-0.4-1-0.7c-0.4-0.5-0.5-1.1-0.2-1.6
					c0.2-0.4,0.8-0.7,1.1-0.8l0.1,0c0.4-0.2,0.7-0.3,1.1-0.4c0.9-0.2,1.8-0.1,2.8,0.3c0.2,0.1,0.3,0.1,0.5,0.2l0-8.2
					c0-0.5,0.2-1,0.6-1.4c0.4-0.4,0.9-0.6,1.4-0.6c1.1,0,2,0.9,2,1.9l0,3c0.3-0.1,0.6-0.2,1-0.2h0c0.9,0,1.6,0.5,1.9,1.3
					c0.3-0.2,0.7-0.3,1.1-0.3c0.5,0,1,0.2,1.4,0.5c0.3,0.2,0.5,0.5,0.5,0.8c0.3-0.2,0.7-0.3,1-0.3c0,0,0,0,0,0c1.1,0,2,0.9,2,1.9
					l0,6.7V26.5C22.8,26.4,22.8,26.4,22.8,26.5C22.8,26.5,22.8,26.5,22.8,26.5z M21.8,26.4C21.8,26.4,21.7,26.4,21.8,26.4l0-0.5
					v-0.4l0-6.3c0-0.5-0.4-0.9-1-0.9c0,0,0,0,0,0c-0.5,0-1,0.4-1,0.9l0,2.1c0,0.3-0.2,0.5-0.5,0.5c-0.3,0-0.5-0.2-0.5-0.5v-2
					c0,0,0,0,0,0v-0.1l0-1.1c0-0.2-0.1-0.4-0.2-0.4c-0.2-0.1-0.5-0.2-0.7-0.2c-0.5,0-1,0.3-1,0.7v0.5l0,2.1c0,0.3-0.2,0.5-0.5,0.5
					c-0.3,0-0.5-0.2-0.5-0.5l0-2.7v-0.9c0-0.5-0.4-0.8-1-0.8c0,0,0,0,0,0c-0.5,0-1,0.4-1,0.8l0,0.8v2.4c0,0.3-0.2,0.5-0.5,0.5
					c-0.3,0-0.5-0.2-0.5-0.5l0-3.2h0l0-4.6c0-0.5-0.4-0.9-1-0.9c-0.3,0-0.5,0.1-0.7,0.3c-0.2,0.2-0.3,0.4-0.3,0.6l0,8.8
					c0.1,0.1,0.2,0.2,0.4,0.3c0.3,0.2,0.5,0.5,0.7,0.7c0.2,0.2,0.2,0.5,0,0.7c-0.2,0.2-0.5,0.2-0.7,0c-0.2-0.2-0.3-0.3-0.6-0.5
					c-0.5-0.4-1.1-0.7-1.6-0.9c-0.7-0.3-1.5-0.4-2.2-0.2c-0.3,0.1-0.6,0.1-0.9,0.3l-0.1,0c-0.2,0.1-0.6,0.2-0.7,0.4
					c-0.1,0.1,0,0.3,0.1,0.4c0.2,0.2,0.4,0.4,0.7,0.5c0.2,0.1,0.4,0.2,0.5,0.3c0.3,0.2,0.7,0.3,1,0.6C7.8,23.9,7.9,24,8,24.1
					c0.6,0.5,0.9,1.1,1.2,1.7c0.1,0.3,0.3,0.6,0.5,1c0,0,0,0,0,0c0,0,0,0,0,0.1c0,0,0,0,0,0c0.1,0.3,0.5,1,0.7,1.4
					c0.9,2.1,1.5,2.4,3.7,2.4l3.9,0c1,0,1.9-0.4,2.6-1.2C21.4,28.6,21.8,27.6,21.8,26.4C21.7,26.5,21.8,26.5,21.8,26.4z"/>
				<path class="st0" d="M21.7,26.4C21.7,26.4,21.8,26.4,21.7,26.4C21.8,26.5,21.7,26.5,21.7,26.4c0,1.2-0.4,2.2-1.1,3
					c-0.7,0.8-1.6,1.2-2.6,1.2l-3.9,0c-2.2,0-2.9-0.2-3.7-2.4c-0.2-0.4-0.6-1.1-0.7-1.4c0,0,0,0,0,0c0,0,0,0,0-0.1c0,0,0,0,0,0
					c-0.2-0.4-0.4-0.7-0.5-1c-0.3-0.6-0.5-1.2-1.2-1.7c-0.1-0.1-0.3-0.2-0.4-0.3c-0.3-0.2-0.6-0.4-1-0.6c-0.2-0.1-0.3-0.2-0.5-0.3
					c-0.3-0.2-0.6-0.3-0.7-0.5c-0.1-0.1-0.2-0.3-0.1-0.4c0.1-0.1,0.5-0.3,0.7-0.4l0.1,0c0.3-0.1,0.6-0.2,0.9-0.3
					c0.7-0.1,1.5,0,2.2,0.2c0.6,0.2,1.1,0.5,1.6,0.9c0.2,0.2,0.4,0.4,0.6,0.5c0.2,0.2,0.5,0.2,0.7,0c0.2-0.2,0.2-0.5,0-0.7
					c-0.2-0.2-0.4-0.4-0.7-0.7c-0.1-0.1-0.2-0.2-0.4-0.3l0-8.8c0-0.2,0.1-0.5,0.3-0.6c0.2-0.2,0.4-0.3,0.7-0.3c0.5,0,1,0.4,1,0.9
					l0,4.6h0l0,3.2c0,0.3,0.2,0.5,0.5,0.5c0.3,0,0.5-0.2,0.5-0.5V18l0-0.8c0-0.5,0.4-0.8,1-0.8c0,0,0,0,0,0c0.5,0,1,0.4,1,0.8v0.9
					l0,2.7c0,0.3,0.2,0.5,0.5,0.5c0.3,0,0.5-0.2,0.5-0.5l0-2.1v-0.5c0-0.4,0.4-0.7,1-0.7c0.3,0,0.5,0.1,0.7,0.2
					c0.1,0.1,0.2,0.2,0.2,0.4l0,1.1v0.1c0,0,0,0,0,0v2c0,0.3,0.2,0.5,0.5,0.5c0.3,0,0.5-0.2,0.5-0.5l0-2.1c0-0.5,0.4-0.9,1-0.9
					c0,0,0,0,0,0c0.5,0,1,0.4,1,0.9l0,6.3V26V26.4z"/>
				<path class="st0" d="M20.9,32.2V34c0,0.1-0.1,0.3-0.1,0.3c-0.1,0.1-0.2,0.2-0.4,0.2l-9.4,0c-0.3,0-0.5-0.2-0.5-0.5l0-1.8
					c0-0.3,0.2-0.5,0.5-0.5l9.4,0C20.6,31.7,20.9,31.9,20.9,32.2z"/>
			</g>
			<g>
			</g>
		</g>
	</g>
</g>
</svg>
