<?xml version="1.0" encoding="utf-8"?>
<!-- Generator: Adobe Illustrator 22.1.0, SVG Export Plug-In . SVG Version: 6.00 Build 0)  -->
<svg version="1.1" id="Layer_1" xmlns="http://www.w3.org/2000/svg" xmlns:xlink="http://www.w3.org/1999/xlink" x="0px" y="0px"
	 viewBox="0 0 25 20.8" style="enable-background:new 0 0 25 20.8;" xml:space="preserve">
<g>
	<g>
		<path d="M18.3,13.8h-7.9c-1.5,0-2.7-1.1-2.9-2.5L6.7,5.1h15.8l-0.7,5.6C21.6,12.5,20.1,13.8,18.3,13.8z M7.5,5.8l0.7,5.4
			c0.1,1.1,1.1,1.9,2.2,1.9h7.9c1.4,0,2.7-1.1,2.9-2.5l0.6-4.8H7.5z"/>
	</g>
	<g>
		<path d="M7.1,5.8C7,5.8,6.8,5.7,6.8,5.6L6,1.6L2.8,1.7c-0.2,0-0.4-0.1-0.4-0.3C2.5,1.2,2.6,1,2.8,1l3.5-0.1c0.2,0,0.3,0.1,0.4,0.3
			l0.8,4.2C7.5,5.6,7.4,5.8,7.1,5.8C7.2,5.8,7.2,5.8,7.1,5.8z"/>
	</g>
	<g>
		<path d="M10.1,19.8c-1.3,0-2.4-1.1-2.4-2.3s1.1-2.3,2.4-2.3s2.3,1.1,2.3,2.3S11.4,19.8,10.1,19.8z M10.1,15.8
			c-0.9,0-1.6,0.7-1.6,1.7s0.7,1.7,1.6,1.7c0.9,0,1.7-0.7,1.7-1.7S11.1,15.8,10.1,15.8z"/>
	</g>
	<g>
		<path d="M18.1,19.8c-1.3,0-2.3-1.1-2.3-2.3s1.1-2.3,2.3-2.3s2.3,1.1,2.3,2.3S19.4,19.8,18.1,19.8z M18.1,15.8
			c-0.9,0-1.7,0.7-1.7,1.7s0.7,1.7,1.7,1.7s1.7-0.7,1.7-1.7S19.1,15.8,18.1,15.8z"/>
	</g>
</g>
</svg>
