<svg width="148" height="27" viewBox="0 0 148 27" fill="none" xmlns="http://www.w3.org/2000/svg">
<path d="M5.7302 21.8458H2.84895L1.72575 25.9985H15.6925L16.7669 21.8458H13.3973L16.7669 8.02006H19.0621L18.8668 10.3162H23.7014L25.6548 3.03691H2.40944L0.504883 10.3162H5.53487L6.5604 7.9712H9.05097L5.7302 21.8458ZM42.1609 3.03691H52.9534L38.5472 25.9985H29.5127L28.243 7.18953H26.3873L27.4617 3.03691H39.4262L38.3518 7.18953H36.3008L36.2519 18.9634L43.1376 7.18953H40.8424L42.1609 3.03691ZM69.8503 9.82767C69.8503 7.53151 70.5828 5.47963 71.5107 3.3789C67.4574 2.64608 63.0622 2.35295 59.0578 3.3789C56.8114 3.96515 54.4673 5.38192 53.1976 7.38495C51.7326 9.63225 52.0744 12.5147 53.8813 14.42C54.8092 15.3482 55.9324 15.9833 57.1044 16.5207C58.0323 16.9604 59.6438 17.6444 59.888 18.7192C60.5717 21.455 56.1765 21.6993 54.4673 21.1619V19.0123H49.8768L48.1188 25.4122C52.2209 26.4381 56.5184 26.7801 60.6693 25.8519C63.1599 25.2656 65.4063 23.9954 67.0667 21.9924C68.4341 20.2825 69.2154 17.107 67.7504 15.2505C66.9202 14.2246 65.9923 13.4429 64.8691 12.8078C63.7948 12.1727 62.6227 11.7818 61.646 11.049C60.474 10.1696 60.474 8.80173 61.7437 8.02006C62.7204 7.38495 64.3319 7.67808 65.4063 7.87349L65.6016 9.77881H69.8503V9.82767Z" fill="#183883"/>
<path d="M132.845 3.47782C130.94 2.745 129.133 2.79386 127.18 3.2824C125.275 3.77094 123.908 4.84574 122.394 6.01824C120.88 7.19075 119.269 8.36325 117.511 9.14492C115.704 9.92659 113.653 10.7571 111.699 9.97544C113.116 10.0243 114.434 9.73117 115.655 8.9495C116.583 8.36325 118.194 7.14189 118.536 6.01824H116.925C118.097 4.74803 119.562 3.77094 121.173 3.18469L120.392 2.25646C122.541 0.79083 124.885 0.106869 127.473 0.00916019C128.694 -0.0396941 129.915 0.106869 131.038 0.448849C132.259 0.790829 133.187 1.37708 134.066 2.25646L132.845 3.47782ZM101.932 8.60752C101.249 8.60752 100.663 8.65638 99.9789 8.85179C99.3441 9.04721 98.7581 9.29148 98.1232 9.53575C96.9512 10.0243 95.828 10.6594 94.7048 11.2457C94.2164 11.4899 93.6304 11.7831 93.0932 11.8808C92.5072 11.9785 91.7259 11.9785 91.1887 11.7342C90.6027 11.4411 90.1143 11.1479 89.626 10.7083C89.1376 10.2686 88.6493 9.82888 88.1609 9.4869C87.6237 9.14492 87.0866 8.90065 86.5494 8.55867C86.7936 8.55867 88.0633 8.50981 87.7214 7.97242C87.4284 7.53273 86.7447 7.33731 86.2075 7.2396C84.9867 6.99533 83.7658 6.99533 82.5449 6.99533C83.5705 6.11595 84.6937 5.67626 86.061 5.67626C87.3307 5.67626 88.3563 6.26251 89.4306 6.89762C89.9678 7.2396 90.6027 7.82585 91.1398 8.16783C91.677 8.50981 92.263 8.70523 92.8491 8.90065C93.9723 9.29148 95.3885 9.09607 96.5117 8.70523C97.4395 8.36325 98.2697 7.97242 99.2953 7.97242C100.223 7.82585 101.102 8.07012 101.932 8.60752Z" fill="#E62D38"/>
<path d="M92.3615 18.4234C94.3638 18.3257 96.0242 16.3716 97.1474 14.9059C98.3682 13.3426 99.1984 10.9976 101.103 10.1182C103.935 8.848 106.914 9.9228 109.503 11.2907C111.944 12.5121 115.363 12.3167 117.804 11.2419C120.49 10.0694 122.541 8.06633 124.837 6.35643C126.985 4.74424 129.769 3.62059 133.09 4.49997L134.555 2.74121L134.848 5.62362L140.024 10.851L138.999 12.0724H135.678V11.2419C134.701 10.5579 133.676 10.0694 132.455 10.2159C131.185 10.3625 129.818 10.9487 130.013 12.4632C130.16 13.4892 131.625 14.4174 132.357 14.9548C133.383 15.6388 134.457 16.2739 135.531 16.9578C137.729 18.3257 139.829 19.8402 141.88 21.4524C143.785 22.9669 145.738 24.5302 147.203 26.4356L142.71 25.5562C143.54 24.9699 142.564 24.3348 142.027 23.8951C141.343 23.3577 140.659 22.918 139.878 22.4784C138.364 21.6478 136.752 21.2081 135.092 20.8173C131.918 20.0356 127.816 19.5471 125.032 21.5501C124.934 21.599 124.837 21.6967 124.739 21.7455L123.176 20.4265C118.146 22.1364 112.53 21.6967 107.891 19.1563C105.986 20.4753 103.789 20.7685 101.591 21.0127C99.4914 21.257 97.2939 21.1104 95.1451 20.915C90.0175 25.1653 83.0341 27.6569 76.4902 25.4096L80.8854 24.286V25.2631C85.6223 25.2631 89.578 21.941 92.3615 18.4234Z" fill="#E62D38"/>
</svg>
