<svg width="130" height="50" viewBox="0 0 130 50" fill="none" xmlns="http://www.w3.org/2000/svg">
<rect width="130" height="50" fill="white"/>
<path fill-rule="evenodd" clip-rule="evenodd" d="M4.43729 17.1111H10.2731L9.83339 18.8349H8.51426L8.63144 18.2805H8.10354L7.19514 21.6169H8.04677L7.81242 22.6449H4.23435L4.24401 22.6172H4.23435L4.58588 21.6157H5.23215L6.05358 18.2515H5.4967L5.40852 18.5269L5.35053 18.8059H4L4.4385 17.1099L4.43729 17.1111ZM17.5754 20.9489V20.9211H16.4314L15.9615 22.4794C15.9615 22.4794 16.2551 22.7549 18.2193 22.7549C20.1834 22.7549 21.1233 21.5336 21.1233 20.7254C21.1233 19.9173 20.506 19.6685 20.2112 19.474C19.9213 19.3073 19.1881 19.1116 19.1579 18.7202C19.1579 18.7153 19.1567 18.7093 19.1567 18.7045C19.1567 18.6948 19.1567 18.6912 19.1518 18.6839V18.6646C19.1579 18.3143 19.6918 18.2309 19.867 18.2213H19.8899C20.0361 18.2213 20.3296 18.3324 20.3296 18.3324V18.7504H21.4458C21.4458 18.7504 21.5038 17.6378 21.8867 17.2211H21.8819H21.8807C21.8191 17.1993 21.1317 17 20.0385 17C18.5261 17 17.236 17.6342 17.0439 18.5656C17.0415 18.5801 17.0391 18.5945 17.033 18.6103V18.6127C17.033 18.6272 17.0294 18.6417 17.0294 18.6574C17.0282 18.6743 17.0233 18.6924 17.0233 18.7069C17.0197 18.7226 17.0185 18.7407 17.0185 18.7552C17.0185 18.7709 17.0185 18.7878 17.0185 18.8047C17.0185 19.8895 17.7795 20.1396 18.3364 20.3908C18.8075 20.6373 18.9501 20.8197 18.9779 20.9912V21.0021H18.9791V21.0081V21.0383V21.1096C18.9791 21.1096 18.9779 21.1132 18.9779 21.1192L18.9755 21.1289V21.1398V21.147L18.973 21.1507V21.1567L18.9694 21.1615C18.9694 21.1615 18.9694 21.1676 18.9658 21.1712V21.1821C18.9658 21.1821 18.9634 21.1869 18.961 21.1893V21.2002C18.8945 21.3657 18.694 21.4986 18.177 21.5034H18.1045C18.0936 21.5022 18.0828 21.5034 18.0755 21.5022H18.0199C18.0054 21.5022 17.9885 21.5022 17.9752 21.4986H17.8834C17.5971 21.4937 17.5742 21.4792 17.5742 21.4732H17.5766V20.9453L17.5754 20.9489ZM10.743 17.1111L10.4495 18.0848H10.4591L10.4495 18.1138H10.9496L11.2419 22.6184H13.5286L17.2529 17.1111H14.4962L14.1447 18.0848H14.7318L13.0019 20.8921V18.1403H13.5008L13.821 17.1111H10.743Z" fill="black"/>
<path fill-rule="evenodd" clip-rule="evenodd" d="M76.9369 23.7683V23.8058C73.8952 23.8022 70.8571 23.8155 67.8118 23.7961C66.884 23.7937 66.1447 24.1489 65.5383 24.829C65.2955 25.0959 65.06 25.3701 64.8208 25.6431C64.5248 25.9741 64.2409 26.2991 63.9462 26.6337C63.829 26.7617 63.7251 26.9043 63.73 27.0891C63.7372 27.2123 63.7819 27.3186 63.9208 27.3343C64.0911 27.3561 64.2639 27.3657 64.433 27.3657C65.908 27.3657 67.3793 27.3597 68.8567 27.3561C70.3848 27.3488 71.9165 27.3525 73.4446 27.3464C73.656 27.3464 73.8698 27.3404 74.0631 27.4298C74.295 27.5324 74.3772 27.7197 74.2685 27.9395C74.2334 28.0084 74.1887 28.0712 74.138 28.1256C73.7031 28.61 73.2683 29.0956 72.8322 29.574C72.5145 29.9049 72.1158 30.0801 71.6508 30.0898C71.3463 30.0982 71.0371 30.1018 70.7327 30.1079C67.9398 30.1103 65.1481 30.1212 62.3528 30.1212C61.9107 30.1212 61.4783 30.1755 61.0555 30.3108C60.8743 30.3616 60.7003 30.4377 60.5566 30.573C60.3343 30.7856 60.1096 30.997 59.8934 31.212C59.8173 31.2833 59.7049 31.3642 59.7714 31.4983C59.8173 31.6022 59.9296 31.5695 60.0238 31.578C60.0794 31.5877 60.1386 31.578 60.1966 31.578C64.3678 31.578 68.5353 31.584 72.709 31.5708C73.1849 31.5683 73.6633 31.5212 74.1368 31.4512C75.0126 31.3243 75.7833 30.9559 76.3921 30.3012C77.1205 29.5208 77.8381 28.7223 78.5085 27.8828C78.6015 27.7644 78.6897 27.6388 78.7477 27.4986C78.8504 27.257 78.7622 27.036 78.5109 26.9405C78.2428 26.8415 77.9601 26.7907 77.669 26.7919C77.1713 26.7944 76.6736 26.7895 76.1807 26.7895C73.9773 26.7919 71.7788 26.7895 69.579 26.7956C69.4425 26.7956 69.3036 26.7956 69.1744 26.7811C68.9436 26.7388 68.8555 26.5346 69.0125 26.3583C69.3036 26.008 69.6201 25.6697 69.9209 25.3254C70.1794 25.0343 70.4935 24.9135 70.8849 24.922C71.6882 24.9461 72.4915 24.9377 73.296 24.9365C75.9754 24.9365 78.6535 24.9316 81.3292 24.9316C82.42 24.9256 83.5132 24.9256 84.6052 24.928C84.8009 24.9256 85.0063 24.9147 85.1017 25.1261C85.1935 25.3387 85.0305 25.4873 84.9097 25.6286C84.4893 26.1215 84.0677 26.612 83.6401 27.1084C82.8247 28.0507 82.0129 28.9893 81.2048 29.9351C81.0248 30.1357 80.8726 30.3555 80.7952 30.6189C80.7034 30.9293 80.7989 31.189 81.0779 31.3449C81.2301 31.4318 81.392 31.4802 81.5708 31.4802C81.8389 31.4826 82.1059 31.4959 82.3753 31.4983C85.6864 31.4922 88.9927 31.485 92.305 31.4777C92.8425 31.4777 93.3813 31.485 93.9116 31.4657C94.7862 31.4318 95.5666 31.1757 96.1391 30.4667C96.2225 30.3604 96.3566 30.2613 96.3119 30.1248C96.2527 29.9315 96.0606 29.9931 95.9169 30.0004C93.6615 30.0112 91.4002 30.0426 89.1425 30.0487C88.1712 30.0535 87.1928 30.0221 86.2203 29.9992C86.0512 29.9931 85.8724 30.0016 85.713 29.9267C85.5185 29.8373 85.4267 29.6513 85.5269 29.4544C85.6091 29.2864 85.7154 29.1234 85.8314 28.976C86.3411 28.3285 86.8557 27.6919 87.3715 27.0468C88.3754 25.7905 89.3768 24.5366 90.3746 23.2815C90.4398 23.2066 90.5002 23.1366 90.5534 23.052C90.6102 22.9675 90.5667 22.8515 90.4725 22.8189C90.4278 22.802 90.3649 22.7766 90.313 22.7742C89.6039 22.7718 88.896 22.7416 88.1893 22.7681C87.7219 22.779 87.2785 22.9203 86.9789 23.3274C86.9004 23.4349 86.7929 23.5231 86.7035 23.6186C86.6105 23.7297 86.497 23.7792 86.352 23.778C86.2203 23.7683 86.0862 23.7756 85.9546 23.778C82.9503 23.7732 79.9412 23.772 76.9357 23.7696M76.8572 23.4217C79.8409 23.4217 82.8319 23.4217 85.8144 23.4253C85.9473 23.4253 86.0802 23.4156 86.2143 23.4253C86.3677 23.4313 86.468 23.3661 86.5574 23.2525C86.5888 23.2066 86.6274 23.1668 86.6612 23.1172C87.0079 22.6123 87.5141 22.4263 88.0951 22.4142C89.2584 22.3973 90.4302 22.3961 91.5935 22.3912C91.6684 22.3937 91.7505 22.3997 91.8169 22.4202C91.9981 22.4782 92.0598 22.599 91.9619 22.7754C91.9172 22.8611 91.8411 22.9276 91.7831 23.0025C90.2272 24.9365 88.6641 26.8741 87.107 28.8141C86.9934 28.953 86.898 29.0811 86.8944 29.2683C86.8883 29.4157 86.9693 29.5389 87.1082 29.5607C87.2991 29.5921 87.4911 29.6078 87.6796 29.6114C90.3372 29.6017 92.9996 29.5921 95.6559 29.5824C96.0775 29.58 96.4991 29.5824 96.9219 29.5824C97.0548 29.5824 97.1925 29.5921 97.3109 29.6573C97.538 29.7757 97.6213 30.0402 97.4776 30.2371C96.6707 31.3545 95.6644 32.1325 94.239 32.2835C93.3958 32.3717 92.5599 32.339 91.7179 32.3451C88.4781 32.3608 85.2491 32.3656 82.0117 32.3789C81.6227 32.3825 81.2567 32.298 80.8991 32.1578C80.7191 32.0902 80.5585 31.9851 80.4147 31.8534C80.1284 31.5853 80.0173 31.2639 80.1176 30.8665C80.219 30.4449 80.4389 30.097 80.7216 29.7769C81.7339 28.6305 82.7498 27.4841 83.7609 26.3341C83.8611 26.2242 83.9626 26.1058 84.0447 25.9778C84.1112 25.8896 84.0447 25.7482 83.9396 25.6903C83.7983 25.6117 83.6413 25.6383 83.4939 25.6359C82.5915 25.6335 81.6916 25.6383 80.794 25.6407C78.3454 25.6528 75.892 25.6673 73.447 25.6758C72.8189 25.6758 72.1883 25.6589 71.5529 25.6939C71.2569 25.7048 71.0359 25.7978 70.8825 26.0406C70.7931 26.1722 70.5515 26.2471 70.659 26.4525C70.7327 26.6083 70.9368 26.5274 71.0782 26.5274C72.7633 26.5334 74.4448 26.525 76.1324 26.5226C76.8511 26.5189 77.5856 26.5165 78.3152 26.5165C78.6378 26.5189 78.9627 26.5346 79.2744 26.6422C79.696 26.7774 79.8603 27.1193 79.7225 27.5457C79.6501 27.7704 79.5172 27.9565 79.3795 28.1401C78.831 28.8999 78.2162 29.6054 77.5965 30.3157C77.3694 30.5754 77.1423 30.8266 76.9079 31.0839C76.1421 31.9211 75.166 32.298 74.0571 32.3789C73.9073 32.3874 73.7527 32.3874 73.6004 32.3874C68.9714 32.3994 64.3352 32.4055 59.7061 32.4176C59.4766 32.4176 59.2459 32.4176 59.0188 32.3994C58.7977 32.3874 58.6781 32.211 58.7313 32.0044C58.7639 31.8522 58.8171 31.7145 58.9415 31.601C59.351 31.2084 59.7472 30.7856 60.1833 30.4099C60.8549 29.8397 61.6788 29.6658 62.5352 29.6561C63.7771 29.6476 65.0225 29.6513 66.2655 29.6525C67.912 29.65 69.5537 29.6392 71.2038 29.6368C71.3379 29.6368 71.472 29.6368 71.6048 29.6271C71.9576 29.5993 72.2729 29.4676 72.5036 29.1826C72.6824 28.9591 72.8648 28.7392 73.0267 28.5061C73.1209 28.3805 73.0436 28.2198 72.8986 28.198C72.7875 28.1787 72.6739 28.1763 72.5543 28.1751C69.5911 28.1872 66.6243 28.2053 63.6599 28.2222C63.4292 28.227 63.1996 28.2367 62.981 28.1461C62.7285 28.047 62.6271 27.8477 62.7309 27.6001C62.7696 27.4938 62.8336 27.3911 62.8964 27.3005C63.0221 27.1302 63.1489 26.9659 63.2927 26.8076C63.9172 26.0829 64.5659 25.375 65.165 24.6357C65.8174 23.8312 66.663 23.4821 67.6728 23.4579C68.1101 23.4482 68.5535 23.4603 68.992 23.4543C71.6145 23.4543 74.2334 23.4543 76.8548 23.4543V23.4229L76.8572 23.4217Z" fill="#24201F"/>
<path fill-rule="evenodd" clip-rule="evenodd" d="M34.716 21.0202V21.0178C31.8664 21.0154 29.0155 21.0142 26.1635 21.0154C25.8905 21.0154 25.6295 21.0275 25.3626 21.0323C24.5375 21.0504 23.8502 21.4008 23.2498 21.9311C23.2027 21.9733 23.1676 22.018 23.1266 22.0603C23.0879 22.1159 23.1326 22.2439 23.1942 22.2415C23.3851 22.2572 23.5772 22.2741 23.7704 22.2729C26.3567 22.2729 28.9358 22.2693 31.5185 22.2705C32.2674 22.2705 33.0104 22.285 33.7605 22.2874C33.9695 22.2874 34.1845 22.2971 34.3742 22.3889C34.4648 22.43 34.4853 22.5665 34.402 22.6232C34.3089 22.6897 34.2159 22.7609 34.1108 22.8044C33.8632 22.9047 33.6119 23.0013 33.3582 23.0787C29.9239 24.1912 26.5138 25.3932 23.1278 26.6483C21.4112 27.2885 19.6802 27.9082 17.9866 28.6209C16.45 29.266 15.0065 30.0959 13.6161 31.0127C13.4602 31.1118 13.2814 31.1988 13.1751 31.3618C13.1063 31.4585 13.1425 31.6216 13.2621 31.6361C13.4312 31.6638 13.6004 31.682 13.7743 31.6808C17.2364 31.6747 20.7009 31.6638 24.1654 31.6554C24.8347 31.6518 25.5027 31.6131 26.1755 31.624C26.8943 31.6421 27.6239 31.5708 28.3487 31.6663C28.4405 31.6771 28.5432 31.6759 28.6338 31.6566C28.902 31.5962 29.1677 31.6107 29.4407 31.6119C30.145 31.6059 30.8505 31.6119 31.5583 31.6022C32.1321 31.5938 32.6999 31.5636 33.2725 31.4826C34.3621 31.3111 35.2608 30.8291 35.9711 29.9884L36.0303 29.8929C36.0593 29.8144 36.0436 29.7407 35.953 29.7117C35.8866 29.6876 35.8093 29.667 35.7344 29.667C35.2729 29.6549 34.8163 29.6441 34.3585 29.6441C31.3735 29.6151 28.391 29.638 25.4097 29.5317C25.2961 29.5269 25.1777 29.5209 25.0642 29.5112C24.9675 29.5003 24.8697 29.452 24.8298 29.3626C24.7851 29.2358 24.8697 29.1367 24.9603 29.0642C25.0292 29.0051 25.1137 28.9519 25.1971 28.9108C25.3336 28.8456 25.4725 28.7816 25.6174 28.7308C27.2615 28.1232 28.9141 27.512 30.5666 26.9225C32.6866 26.1614 34.8115 25.4004 36.9569 24.707C38.2844 24.2806 39.6084 23.8602 40.9408 23.435C41.157 23.3674 41.3817 23.2949 41.5726 23.1813C42.446 22.6643 43.3 22.1086 44.1299 21.5276C44.2193 21.466 44.3014 21.3838 44.3824 21.3017C44.444 21.2316 44.3932 21.1 44.2978 21.077C44.206 21.0504 44.1106 21.0396 44.0164 21.0359C43.6914 21.0263 43.364 21.0251 43.0415 21.0251C40.2655 21.0251 37.4908 21.0251 34.716 21.0227M35.3285 20.6288C38.6335 20.6313 41.9459 20.6313 45.2582 20.6385C45.4309 20.6325 45.6085 20.6252 45.78 20.6482C46.0397 20.6905 46.1678 21.0009 46.0095 21.2292C45.9129 21.373 45.7595 21.4636 45.6206 21.559C45.0335 21.954 44.4452 22.3466 43.8605 22.7392C43.5235 22.9639 43.1877 23.1837 42.8748 23.4314C42.4037 23.8071 41.8504 24.0221 41.2863 24.2117C38.5019 25.154 35.7199 26.0938 32.9355 27.0396C31.4182 27.5555 29.9094 28.0809 28.3886 28.604C28.2086 28.6668 28.0358 28.7357 27.8534 28.7973C27.7375 28.842 27.636 28.9024 27.659 29.0389C27.6831 29.1536 27.7906 29.1621 27.8873 29.1669C28.0975 29.173 28.3064 29.1778 28.5178 29.1778C31.1198 29.1754 33.7206 29.173 36.3227 29.1681C36.4942 29.1706 36.6694 29.1706 36.8373 29.1742C36.9822 29.1742 37.097 29.237 37.1876 29.3457C37.2589 29.4411 37.3048 29.5499 37.2299 29.6646C37.1525 29.7721 37.0789 29.8881 36.9871 29.9823C36.4519 30.5271 35.9059 31.0756 35.3708 31.6119C35.0929 31.8849 34.7366 32.0335 34.373 32.1591C33.7508 32.3681 33.113 32.4659 32.4595 32.4853C31.8084 32.5082 31.1597 32.5022 30.5086 32.5046C24.558 32.5203 18.6087 32.5348 12.6581 32.5553C12.4298 32.5553 12.1918 32.5553 11.9732 32.5119C11.6035 32.4478 11.4888 32.1531 11.6652 31.8173C11.7799 31.6119 11.9514 31.4633 12.1411 31.3329C13.5037 30.3737 14.9171 29.5076 16.4186 28.7804C17.5891 28.215 18.8201 27.8019 20.0329 27.3429C22.0442 26.5818 24.0736 25.8498 26.0958 25.1105C27.4403 24.6152 28.7848 24.1381 30.1317 23.6537C30.2803 23.6029 30.418 23.551 30.5581 23.4954C30.6354 23.4616 30.6958 23.3988 30.6898 23.3178C30.685 23.2405 30.6064 23.197 30.5231 23.1946C30.3552 23.1886 30.1824 23.1801 30.0073 23.1801C27.5986 23.1862 25.1862 23.1862 22.7763 23.1946C22.5649 23.1946 22.3535 23.1898 22.1433 23.185C22.0237 23.185 21.9162 23.1463 21.828 23.0654C21.7362 22.9917 21.6891 22.8866 21.7325 22.7634C21.776 22.6329 21.8401 22.5181 21.9464 22.4275C22.4344 22.0023 22.9273 21.5735 23.4201 21.1555C23.6907 20.9224 24.0157 20.8257 24.3636 20.7714C24.9132 20.6856 25.4664 20.6711 26.0245 20.6723C29.1242 20.6723 32.2239 20.6723 35.3224 20.6723V20.6313L35.3285 20.6288Z" fill="#24201F"/>
<path fill-rule="evenodd" clip-rule="evenodd" d="M53.6429 23.8578V23.8675C51.2499 23.8639 48.8557 23.8675 46.4614 23.8639C45.8635 23.8639 45.2848 23.9654 44.728 24.1828C43.8316 24.5319 43.1262 25.1407 42.5077 25.8595C42.2057 26.2062 41.9 26.5492 41.5932 26.8911C40.535 28.0737 39.4792 29.2551 38.4186 30.439C38.3087 30.567 38.2 30.7023 38.1311 30.8557C37.9789 31.1601 38.09 31.4319 38.3872 31.5648C38.6047 31.6615 38.8318 31.6723 39.0613 31.6723C40.7295 31.6651 42.3929 31.6615 44.0563 31.6627C45.5675 31.659 47.0811 31.6603 48.5911 31.6651C50.6387 31.6711 52.6814 31.6723 54.7265 31.5926C55.6639 31.5624 56.3573 31.1046 56.9105 30.3979C56.9903 30.3001 56.9359 30.1503 56.8079 30.1334C56.6605 30.1164 56.5059 30.1104 56.3573 30.108C55.4948 30.1104 54.6323 30.1104 53.771 30.1104C52.3008 30.1201 50.8283 30.1225 49.3558 30.1321C47.9183 30.1382 46.4844 30.1611 45.0457 30.1623C44.8222 30.1648 44.589 30.1297 44.3619 30.0875C44.066 30.0343 43.9621 29.8096 44.1131 29.5354C44.2025 29.388 44.31 29.2563 44.426 29.1319C44.7171 28.8009 45.0142 28.4724 45.3138 28.1559C45.9722 27.4589 46.6209 26.757 47.2925 26.0721C47.9738 25.3739 48.8049 24.9849 49.7991 25.0199C50.1434 25.032 50.4925 25.0115 50.8356 25.0115C52.5364 25.0042 54.2409 25.0042 55.9454 25.003C56.0758 25.003 56.2123 25.0223 56.3404 25.0453C56.4769 25.0743 56.5433 25.2494 56.4769 25.369C56.4116 25.4669 56.3428 25.5587 56.2594 25.6372C56.0239 25.8655 55.7859 26.083 55.5467 26.304C55.2423 26.5891 54.8835 26.7558 54.4692 26.7739C53.8761 26.809 53.2854 26.8404 52.691 26.8561C52.0617 26.8742 51.4347 26.8718 50.7969 26.8742C50.4683 26.8802 50.1567 26.9575 49.9102 27.2052L49.8812 27.303L49.961 27.3779C50.1712 27.3973 50.3801 27.4142 50.5891 27.4142C52.232 27.4214 53.8785 27.4323 55.5226 27.4347C56.5385 27.4347 57.5532 27.4794 58.5582 27.3356C59.4014 27.2064 60.1443 26.9032 60.7048 26.2424C61.1156 25.7604 61.5214 25.2736 61.9056 24.7759C62.3211 24.2323 62.1991 23.9738 61.5033 23.905C61.1216 23.8723 60.7375 23.8554 60.3569 23.8554C58.1197 23.8554 55.8789 23.853 53.6441 23.8554M46.7791 32.4889C44.1964 32.4914 41.6138 32.4865 39.0335 32.4913C38.7424 32.4913 38.4621 32.4563 38.1794 32.4056C37.3399 32.2449 37.1925 31.2628 37.5416 30.7712C37.6201 30.6649 37.6999 30.5586 37.7893 30.4607C39.0395 29.0389 40.2898 27.6099 41.5437 26.1953C41.9363 25.7508 42.3494 25.3207 42.7867 24.9233C43.439 24.3205 44.1674 23.8361 45.0396 23.6066C45.4842 23.4846 45.9359 23.4254 46.401 23.4266C49.7278 23.4242 53.0583 23.4205 56.3863 23.4085C57.9361 23.4085 59.4884 23.4 61.0382 23.4036C61.5142 23.4 61.9938 23.3879 62.4588 23.5293C63.0206 23.7008 63.2042 24.1188 62.9348 24.6225C62.8285 24.8267 62.7053 25.0223 62.5663 25.2084C62.152 25.7785 61.7183 26.3342 61.2364 26.8633C60.5768 27.5797 59.7481 27.9771 58.7938 28.1233C58.2852 28.1969 57.7646 28.2344 57.25 28.2308C54.6105 28.2308 51.9699 28.2356 49.3292 28.2453C49.1202 28.2453 48.9052 28.2731 48.7143 28.1643C48.5959 28.1015 48.544 27.9843 48.6273 27.8853C49.084 27.3586 49.5744 26.8827 50.2122 26.5831C50.4067 26.4901 50.6205 26.5154 50.8331 26.5118C51.7693 26.5082 52.7031 26.5021 53.6453 26.5045C54.0669 26.5021 54.4801 26.4369 54.8702 26.2654C54.9886 26.211 55.0973 26.1252 55.1988 26.0407C55.2761 25.9815 55.2351 25.8269 55.1432 25.8124C55.0128 25.7906 54.8811 25.7713 54.7458 25.7713C53.1742 25.7798 51.6087 25.8051 50.0407 25.7955C49.2386 25.7882 48.5923 26.0975 48.0439 26.6447C47.5776 27.1025 47.1439 27.5881 46.703 28.0629C46.4179 28.3745 46.1401 28.685 45.855 28.999C45.7801 29.0836 45.7088 29.1742 45.6533 29.2757C45.582 29.4182 45.6569 29.597 45.8006 29.6586C45.9855 29.7275 46.1775 29.7238 46.366 29.7178C48.0511 29.7154 49.7363 29.7118 51.4202 29.7106C53.4279 29.7009 55.4344 29.6876 57.4481 29.6816C57.5834 29.6767 57.7151 29.6949 57.8419 29.7311C58.0932 29.8096 58.1958 30.05 58.0787 30.2807C58.0062 30.4124 57.9108 30.5356 57.8105 30.6492C57.5943 30.9137 57.349 31.1638 57.1352 31.4319C56.8622 31.775 56.5034 31.984 56.1012 32.1277C55.6881 32.2715 55.2556 32.3621 54.8147 32.3935C53.8012 32.4769 52.7901 32.4491 51.773 32.4527C50.112 32.4636 48.4449 32.4563 46.7815 32.4551L46.7791 32.4877V32.4889Z" fill="#24201F"/>
<path fill-rule="evenodd" clip-rule="evenodd" d="M95.0113 23.8711V23.882C94.4907 23.882 93.9821 23.8771 93.459 23.882C92.4673 23.8916 92.6147 23.8179 91.9648 24.666C91.914 24.7288 91.8705 24.8049 91.9297 24.8737C91.9599 24.9076 92.0276 24.9208 92.0771 24.9208C93.0338 24.9208 93.993 24.8894 94.9461 24.9172C95.8122 24.9402 96.4887 24.5669 97.1241 24.0402L97.1531 23.9472L97.0721 23.8808C97.0166 23.8747 96.9586 23.8771 96.903 23.8759C96.2713 23.8759 95.6419 23.8735 95.0125 23.8711M95.5706 23.4217C96.4126 23.4217 97.2521 23.4193 98.0917 23.4217C98.2596 23.4217 98.436 23.4096 98.6015 23.487C98.7356 23.5558 98.7802 23.6935 98.7054 23.8155C98.616 23.9665 98.4843 24.0813 98.3466 24.1864C97.9878 24.4666 97.6169 24.7336 97.269 25.0308C96.711 25.5019 96.055 25.6903 95.3616 25.7048C94.0292 25.7423 92.6847 25.7217 91.3523 25.7266C91.2931 25.7266 91.2388 25.7266 91.182 25.7109C90.9633 25.6734 90.8679 25.4765 90.9935 25.2844C91.1047 25.1081 91.2424 24.9474 91.368 24.7807C91.571 24.5065 91.7884 24.2359 91.9901 23.9557C92.2462 23.5836 92.5881 23.4096 93.0544 23.4217C93.8927 23.4483 94.7335 23.4278 95.5718 23.4253V23.4217H95.5706Z" fill="#24201F"/>
<path fill-rule="evenodd" clip-rule="evenodd" d="M76.937 23.7684C79.9424 23.7708 82.9515 23.772 85.9558 23.7769C86.0887 23.7744 86.2216 23.7672 86.3532 23.7769C86.497 23.7769 86.6118 23.7297 86.7048 23.6174C86.7954 23.522 86.9029 23.4338 86.9802 23.3263C87.2822 22.9192 87.7219 22.7778 88.1942 22.767C88.8961 22.7404 89.6039 22.7706 90.313 22.773C90.365 22.7754 90.4266 22.7996 90.4725 22.8177C90.5703 22.8491 90.6102 22.9663 90.5534 23.0509C90.5003 23.1342 90.4399 23.2055 90.3783 23.2804C89.3781 24.5355 88.3754 25.7894 87.3716 27.0457C86.8594 27.6895 86.3412 28.3274 85.8314 28.9748C85.7142 29.1222 85.6127 29.2853 85.527 29.4532C85.4267 29.6501 85.5185 29.8361 85.713 29.9255C85.8725 30.0004 86.0512 29.992 86.2204 29.998C87.194 30.0198 88.1713 30.0524 89.1425 30.0475C91.4002 30.0415 93.6616 30.0101 95.9169 29.9992C96.0607 29.992 96.2527 29.9316 96.3119 30.1236C96.3566 30.2601 96.2225 30.3592 96.1392 30.4655C95.5666 31.1746 94.7862 31.4307 93.9116 31.4645C93.3813 31.4838 92.8426 31.4766 92.305 31.4766C88.9927 31.4838 85.6864 31.4911 82.3753 31.4971C82.106 31.4947 81.8402 31.4814 81.5708 31.479C81.3956 31.479 81.2302 31.4307 81.0804 31.3461C80.7989 31.1891 80.7023 30.9294 80.7941 30.6177C80.8714 30.3556 81.0236 30.1357 81.2036 29.934C82.0129 28.9881 82.8247 28.0495 83.6389 27.1073C84.0653 26.6108 84.4881 26.1204 84.9085 25.6275C85.0305 25.4862 85.1924 25.3376 85.1006 25.125C85.0051 24.9136 84.7986 24.9244 84.6041 24.9269C83.5108 24.9244 82.4176 24.9245 81.3316 24.9317C78.6523 24.9317 75.973 24.9353 73.2949 24.9353C72.4903 24.9377 71.687 24.945 70.8837 24.9208C70.4923 24.9112 70.1782 25.032 69.9197 25.3243C69.6189 25.6686 69.3025 26.0068 69.0113 26.3571C68.8555 26.5335 68.9425 26.7376 69.1744 26.7763C69.3025 26.7944 69.4414 26.7944 69.5779 26.7944C71.7764 26.7884 73.9762 26.7884 76.1795 26.7884C76.6736 26.7884 77.1749 26.7908 77.6678 26.7908C77.9589 26.7884 78.2416 26.8391 78.5098 26.9394C78.761 27.0312 78.8492 27.2559 78.7465 27.4975C78.6873 27.6376 78.6004 27.7632 78.5073 27.8816C77.8369 28.7212 77.1206 29.5184 76.3909 30.3C75.7821 30.9547 75.0114 31.3244 74.1356 31.45C73.6621 31.5201 73.1849 31.566 72.7078 31.5696C68.5354 31.5829 64.3678 31.5756 60.1954 31.5769C60.1374 31.5769 60.0782 31.5865 60.0227 31.5769C59.9284 31.5696 59.8161 31.601 59.7702 31.4971C59.7038 31.363 59.8161 31.2821 59.8922 31.2108C60.1084 30.9958 60.3343 30.7844 60.5554 30.5718C60.6991 30.4353 60.8743 30.3604 61.0543 30.3097C61.4771 30.1744 61.9096 30.12 62.3517 30.12C65.147 30.1176 67.9386 30.1055 70.7327 30.1067C71.0371 30.1007 71.3464 30.0971 71.6496 30.0886C72.1147 30.0789 72.5133 29.9038 72.831 29.5728C73.2671 29.0944 73.7008 28.6088 74.1368 28.1244C74.1876 28.0701 74.2335 28.0072 74.2673 27.9384C74.3772 27.7173 74.2939 27.5301 74.0619 27.4286C73.8675 27.338 73.6548 27.3453 73.4435 27.3453C71.9153 27.3513 70.3836 27.3477 68.8555 27.3549C67.3781 27.3586 65.9068 27.3646 64.4318 27.3646C64.2627 27.3646 64.09 27.3549 63.9196 27.3332C63.7807 27.3175 63.7372 27.2112 63.7288 27.088C63.7227 26.9031 63.8278 26.7606 63.945 26.6325C64.2398 26.2979 64.5236 25.973 64.8196 25.642C65.0588 25.3678 65.2919 25.0948 65.5384 24.8278C66.1436 24.1489 66.8829 23.7926 67.8106 23.795C70.8559 23.8119 73.894 23.7986 76.9357 23.8046V23.7672" fill="#E32327"/>
<path fill-rule="evenodd" clip-rule="evenodd" d="M34.7181 21.0202C37.4929 21.0226 40.2676 21.0226 43.0436 21.0226C43.3673 21.0226 43.6935 21.0226 44.0184 21.0335C44.1127 21.0371 44.2069 21.048 44.2999 21.0745C44.3953 21.0975 44.4461 21.2304 44.3845 21.2992C44.3035 21.3814 44.2214 21.4635 44.132 21.5251C43.3021 22.1062 42.448 22.6618 41.5747 23.1789C41.3838 23.2912 41.1591 23.3637 40.9429 23.4325C39.6105 23.8578 38.2865 24.2806 36.9589 24.7046C34.8135 25.3979 32.6887 26.159 30.5687 26.92C28.9161 27.5095 27.2636 28.1208 25.6195 28.7284C25.4758 28.7791 25.3356 28.8443 25.1991 28.9084C25.1158 28.9494 25.0312 29.0038 24.9624 29.0618C24.873 29.1343 24.7884 29.2345 24.8319 29.3602C24.8718 29.4508 24.9696 29.5003 25.0663 29.5087C25.1798 29.5184 25.297 29.5244 25.4117 29.5305C28.3931 29.6368 31.3756 29.6138 34.3605 29.6416C34.8184 29.6416 35.275 29.6513 35.7364 29.6646C35.8113 29.6646 35.8887 29.6851 35.9551 29.7093C36.0445 29.7395 36.0614 29.8119 36.0324 29.8905L35.9732 29.9859C35.2629 30.8279 34.3642 31.3098 33.2746 31.4802C32.7032 31.5623 32.1342 31.5913 31.5604 31.5998C30.8501 31.6143 30.1471 31.6046 29.4428 31.6094C29.1698 31.6094 28.904 31.5937 28.6359 31.6541C28.5453 31.6735 28.4426 31.6771 28.3508 31.6638C27.626 31.5684 26.8964 31.6384 26.1776 31.6215C25.5048 31.6119 24.8367 31.6493 24.1675 31.6529C20.7042 31.6614 17.2385 31.6722 13.7764 31.6783C13.6024 31.6783 13.4333 31.6614 13.2642 31.6336C13.1446 31.6191 13.1084 31.456 13.1772 31.3594C13.2847 31.1963 13.4623 31.1105 13.6181 31.0103C15.0085 30.0922 16.4533 29.2635 17.9886 28.6184C19.6835 27.9057 21.4133 27.286 23.1299 26.6458C26.5159 25.3907 29.9272 24.1887 33.3603 23.0762C33.614 23.0001 33.8653 22.9034 34.1129 22.802C34.218 22.7597 34.3122 22.6884 34.404 22.6208C34.4874 22.564 34.4668 22.4275 34.3762 22.3864C34.1866 22.2958 33.9728 22.2849 33.7626 22.2849C33.0124 22.2825 32.2695 22.2668 31.5206 22.268C28.9379 22.2656 26.3588 22.2705 23.7725 22.2705C23.5804 22.2705 23.3884 22.2547 23.1963 22.239C23.1335 22.2415 23.09 22.1134 23.1286 22.0578C23.1697 22.0156 23.2047 21.9709 23.2519 21.9286C23.8522 21.3983 24.5396 21.048 25.3646 21.0298C25.6316 21.025 25.8913 21.0129 26.1655 21.0166C29.0176 21.0105 31.8685 21.0129 34.7181 21.0141V21.0166" fill="#E32327"/>
<path fill-rule="evenodd" clip-rule="evenodd" d="M53.643 23.8578C55.8778 23.8554 58.1186 23.8578 60.357 23.8602C60.7376 23.8602 61.1205 23.8747 61.5034 23.9073C62.1992 23.9762 62.3212 24.2347 61.9057 24.7795C61.5215 25.276 61.1145 25.7628 60.7049 26.246C60.1432 26.9056 59.4003 27.2088 58.5583 27.3392C57.5533 27.483 56.5386 27.4395 55.5227 27.4383C53.8786 27.4359 52.2333 27.425 50.5892 27.4178C50.3802 27.4178 50.1713 27.4008 49.9611 27.3815L49.8813 27.3066L49.9103 27.2088C50.1556 26.9611 50.4684 26.8826 50.797 26.8814C51.4348 26.8754 52.0618 26.8778 52.6911 26.8597C53.2867 26.8452 53.8774 26.8126 54.4693 26.7812C54.8836 26.7594 55.2424 26.5927 55.5468 26.3076C55.786 26.0866 56.0276 25.8679 56.2607 25.6408C56.3429 25.5611 56.413 25.4693 56.477 25.3714C56.5434 25.2518 56.477 25.0767 56.3405 25.0477C56.2124 25.0247 56.0771 25.0054 55.9455 25.0054C54.241 25.0054 52.5377 25.0054 50.8357 25.0139C50.4914 25.0139 50.1435 25.0344 49.7992 25.0223C48.805 24.9873 47.9739 25.3775 47.2926 26.0745C46.621 26.7594 45.9723 27.4612 45.3139 28.1583C45.0144 28.4747 44.7172 28.8045 44.4261 29.1343C44.3089 29.2587 44.2026 29.3904 44.1132 29.5402C43.961 29.8132 44.0649 30.0367 44.362 30.0935C44.5891 30.1321 44.8223 30.1684 45.0458 30.1647C46.4845 30.1647 47.9184 30.1418 49.3559 30.1345C50.8296 30.1285 52.301 30.1225 53.7711 30.1164C54.6324 30.114 55.4949 30.1128 56.3574 30.114C56.5048 30.114 56.6618 30.1224 56.8092 30.1357C56.9372 30.1526 56.9916 30.3024 56.9119 30.4003C56.355 31.1082 55.6652 31.5636 54.7278 31.595C52.6827 31.6747 50.64 31.6759 48.5924 31.6675C47.0812 31.6651 45.5688 31.6651 44.0576 31.6651C42.3942 31.6651 40.732 31.6675 39.0626 31.6747C38.8331 31.6747 38.606 31.6638 38.3885 31.5672C38.0914 31.4343 37.9802 31.1625 38.1324 30.8581C38.2013 30.7047 38.3112 30.5694 38.4199 30.4414C39.4805 29.2575 40.5363 28.0749 41.5945 26.8935C41.9014 26.5504 42.207 26.2086 42.5078 25.8619C43.1287 25.1431 43.8341 24.5343 44.7293 24.1852C45.2874 23.9677 45.8648 23.8651 46.4627 23.8663C48.8558 23.8711 51.2512 23.8687 53.6442 23.8699V23.8602" fill="#E32327"/>
<path fill-rule="evenodd" clip-rule="evenodd" d="M95.0092 23.876C95.6398 23.8735 96.2691 23.876 96.8997 23.876C96.9553 23.876 97.0133 23.876 97.0688 23.882L97.1498 23.946L97.1208 24.039C96.4854 24.5681 95.8089 24.939 94.9428 24.916C93.9897 24.8883 93.0341 24.9185 92.0738 24.9197C92.023 24.9197 91.9566 24.9076 91.9264 24.8726C91.8672 24.8037 91.9131 24.7288 91.9614 24.6648C92.6113 23.8168 92.4688 23.8917 93.4557 23.8808C93.9788 23.876 94.4873 23.8832 95.008 23.8832V23.8748" fill="#E32327"/>
<path fill-rule="evenodd" clip-rule="evenodd" d="M100.375 31.6904V31.6976C100.854 31.7001 101.33 31.6952 101.813 31.7001C102.176 31.7061 102.446 31.5684 102.686 31.264C104.087 29.4496 105.511 27.6473 106.929 25.8377C107.017 25.7217 107.11 25.5949 107.189 25.4668C107.268 25.3352 107.216 25.2047 107.102 25.1201C106.943 25.0102 106.773 25.009 106.601 25.009C105.817 25.009 105.03 24.9909 104.249 25.0235C103.22 25.0622 102.291 25.3497 101.641 26.2327C101.515 26.3982 101.366 26.5516 101.243 26.7219C101.173 26.8113 101.243 26.9635 101.362 26.9901C101.434 27.007 101.509 27.0167 101.58 27.0203C101.696 27.0227 101.815 27.0094 101.927 27.0143C101.984 27.0203 102.047 27.0396 102.082 27.0759C102.146 27.152 102.061 27.2112 102.022 27.2655C101.962 27.3441 101.9 27.4117 101.839 27.4866C100.839 28.6692 99.8396 29.8518 98.8345 31.0369C98.7391 31.1553 98.6521 31.2736 98.5664 31.4041C98.5156 31.4826 98.5724 31.6119 98.6618 31.6397C98.7681 31.6626 98.8865 31.6856 98.9976 31.6868C99.4554 31.6928 99.9145 31.6892 100.375 31.6892M107.849 27.0952L107.833 27.1918C107.426 27.6811 107.02 28.1558 106.615 28.6378C105.936 29.4363 105.261 30.2372 104.581 31.0405C104.482 31.1589 104.393 31.2785 104.313 31.4065C104.245 31.5044 104.316 31.6481 104.437 31.665C104.53 31.6783 104.628 31.6795 104.722 31.6868C105.007 31.6892 105.296 31.6928 105.582 31.694C106.248 31.694 106.918 31.694 107.588 31.694C107.916 31.694 108.161 31.5575 108.362 31.2966C109.774 29.487 111.192 27.6871 112.602 25.8896C112.72 25.7338 112.825 25.5755 112.922 25.4101C112.985 25.3086 112.934 25.1938 112.829 25.1201C112.677 25.0018 112.504 25.015 112.333 25.0175C111.667 25.0175 110.995 25.0199 110.329 25.0138C110 25.0138 109.686 25.0658 109.361 25.0972C108.269 25.2144 107.596 25.9247 106.975 26.7171C106.898 26.8149 106.956 26.9708 107.078 26.9816C107.232 27.001 107.38 27.001 107.534 27.0094C107.646 27.0143 107.769 26.9841 107.849 27.094V27.0952ZM115.049 31.6989L115.046 31.6807C115.145 31.6807 115.237 31.6807 115.337 31.6807C116.675 31.6807 118.016 31.6735 119.356 31.6711C119.874 31.6735 120.326 31.5092 120.722 31.1722C120.943 30.9898 121.14 30.7808 121.321 30.5561C121.707 30.0826 122.093 29.6078 122.469 29.1283C123.213 28.1788 123.951 27.2245 124.682 26.2714C124.824 26.0865 124.961 25.9005 125.068 25.7C125.264 25.3484 125.152 25.0573 124.762 24.9438C124.58 24.8894 124.387 24.8822 124.195 24.881C123.488 24.8737 122.785 24.887 122.07 24.8918C120.102 24.8942 118.129 24.9124 116.158 24.9099C115.241 24.9124 114.48 25.2156 113.909 25.9549C112.679 27.5422 111.438 29.121 110.21 30.7059C110.137 30.7953 110.072 30.8955 110.03 31.0018C109.88 31.3292 110.04 31.6203 110.403 31.6771C110.571 31.7025 110.747 31.6976 110.917 31.6976C112.293 31.694 113.671 31.6976 115.049 31.6976V31.6989ZM113.729 24.6164C116.448 24.4968 118.607 24.5741 120.77 24.5693C122.148 24.5657 123.523 24.5633 124.903 24.556C125.056 24.556 125.209 24.5463 125.362 24.5657C125.845 24.6152 126.049 24.9063 125.993 25.3956C125.952 25.6758 125.815 25.8933 125.645 26.1071C125.088 26.8149 124.539 27.5216 123.986 28.2331C123.269 29.156 122.546 30.0717 121.835 30.9958C121.475 31.4717 121.022 31.7955 120.452 31.9634C120.148 32.0504 119.848 32.0564 119.538 32.0564C118.391 32.0685 117.242 32.0564 116.089 32.077C114.146 32.1035 112.195 32.0335 110.244 32.1156C109.122 31.9996 107.995 32.048 106.862 32.054C103.803 32.0625 100.744 32.0806 97.6857 32.1011C97.4828 32.1047 97.298 32.0697 97.124 31.9972C96.8534 31.8837 96.7556 31.6095 96.8583 31.3316C96.9332 31.1299 97.0697 30.9741 97.1989 30.811C98.2475 29.5124 99.2948 28.2186 100.342 26.9249C100.579 26.6313 100.818 26.3269 101.054 26.0237C101.149 25.9102 101.251 25.7894 101.347 25.677C101.956 24.9595 102.722 24.6188 103.665 24.6249C105.119 24.6345 106.574 24.6188 108.029 24.6164C110.114 24.6128 112.199 24.6164 113.728 24.6164H113.729Z" fill="#2B2523"/>
<path fill-rule="evenodd" clip-rule="evenodd" d="M115.138 31.2338V31.2193H116.052C117.081 31.2132 118.111 31.2096 119.137 31.2011C119.389 31.2036 119.65 31.212 119.87 31.0912C120.306 30.8545 120.734 30.6116 121.014 30.1719C121.186 29.8965 121.414 29.6646 121.62 29.4133C121.823 29.1633 122.055 28.9265 122.233 28.6595C122.465 28.3044 122.74 27.9879 123.006 27.6654C123.213 27.4141 123.434 27.1725 123.617 26.9055C123.831 26.5963 124.063 26.2919 124.329 26.0152C124.412 25.9319 124.464 25.8365 124.509 25.7302C124.556 25.6178 124.493 25.532 124.416 25.4873C124.222 25.3907 124.012 25.3883 123.801 25.3907C122.731 25.4016 121.657 25.4209 120.589 25.4004C118.931 25.3653 117.279 25.4004 115.617 25.4427C115.486 25.4463 115.345 25.4571 115.23 25.5091C114.83 25.6939 114.447 25.9331 114.178 26.2798C113.619 27.007 113.023 27.7016 112.49 28.4433C111.896 29.2587 111.211 30.0028 110.648 30.84C110.55 30.9837 110.583 31.154 110.751 31.1963C110.875 31.2265 111.017 31.235 111.147 31.2326C112.476 31.235 113.81 31.2326 115.141 31.2326M115.047 31.6988C113.668 31.6988 112.29 31.6964 110.914 31.6988C110.745 31.6988 110.57 31.7037 110.401 31.6783C110.036 31.6215 109.876 31.3316 110.027 31.003C110.07 30.8967 110.134 30.7965 110.207 30.7071C111.435 29.121 112.677 27.5421 113.906 25.956C114.478 25.2156 115.239 24.9136 116.156 24.9111C118.126 24.9136 120.097 24.9003 122.067 24.893C122.783 24.8906 123.487 24.8749 124.192 24.8821C124.384 24.8821 124.578 24.8906 124.759 24.945C125.149 25.0621 125.261 25.3484 125.066 25.7012C124.958 25.9017 124.822 26.0926 124.679 26.2725C123.947 27.2269 123.21 28.1812 122.466 29.1294C122.092 29.609 121.705 30.0838 121.318 30.5573C121.137 30.7832 120.939 30.991 120.719 31.1734C120.323 31.5104 119.871 31.6747 119.353 31.6723C118.013 31.6747 116.673 31.6819 115.334 31.6819C115.234 31.6819 115.142 31.6819 115.043 31.6819L115.047 31.7V31.6988Z" fill="#DBDCDA"/>
<path fill-rule="evenodd" clip-rule="evenodd" d="M112.349 25.5273C111.718 25.5297 111.098 25.5418 110.473 25.5249C109.884 25.5116 109.307 25.5792 108.766 25.822C108.426 25.9791 108.064 26.1228 107.861 26.4804C107.784 26.6181 107.792 26.6954 107.948 26.7208C108.151 26.7594 108.256 26.8621 108.297 27.0505C108.338 27.2366 108.345 27.3912 108.196 27.5688C108.022 27.7729 107.822 27.9445 107.647 28.145C107.095 28.7756 106.653 29.4931 106.053 30.0778C105.673 30.4486 105.358 30.8678 105.011 31.3208C105.229 31.3292 105.418 31.316 105.594 31.3546C106.164 31.4633 106.728 31.4054 107.293 31.4017C107.439 31.4017 107.593 31.351 107.738 31.3099C107.851 31.2797 107.946 31.2242 108.014 31.1215C108.441 30.4897 109.042 29.986 109.419 29.3179C109.481 29.2068 109.585 29.1162 109.673 29.0123C109.973 28.6221 110.357 28.3032 110.573 27.843C110.639 27.7089 110.753 27.5929 110.858 27.4866C111.405 26.9213 111.793 26.2388 112.304 25.6481C112.326 25.6215 112.331 25.5804 112.349 25.5249M107.845 27.0928C107.764 26.9853 107.642 27.0143 107.53 27.0095C107.378 27.0034 107.228 27.0034 107.075 26.9829C106.953 26.9696 106.895 26.815 106.972 26.7171C107.589 25.9259 108.266 25.2144 109.358 25.0972C109.683 25.0658 109.997 25.0127 110.325 25.0139C110.992 25.0199 111.664 25.0163 112.329 25.0175C112.501 25.0151 112.674 25.0054 112.826 25.1202C112.931 25.1951 112.978 25.3098 112.919 25.4101C112.823 25.5768 112.717 25.735 112.599 25.8897C111.189 27.6872 109.771 29.4871 108.359 31.2966C108.156 31.5588 107.913 31.6941 107.582 31.6941C106.915 31.6941 106.245 31.6941 105.579 31.6965C105.294 31.6965 105.004 31.6892 104.719 31.6868C104.625 31.6796 104.527 31.6772 104.429 31.6675C104.313 31.6482 104.242 31.5032 104.309 31.4066C104.388 31.2785 104.477 31.1613 104.578 31.0442C105.254 30.2384 105.933 29.4387 106.612 28.6391C107.017 28.1583 107.422 27.6835 107.827 27.1931L107.845 27.094V27.0928Z" fill="#DBDCDA"/>
<path fill-rule="evenodd" clip-rule="evenodd" d="M101.949 26.6797C102.009 26.7063 102.021 26.7232 102.035 26.7171C102.247 26.6954 102.44 26.7522 102.505 26.9575C102.562 27.1496 102.569 27.3465 102.4 27.535C101.794 28.2187 101.284 28.9833 100.638 29.6369C100.226 30.0609 99.8681 30.5332 99.5202 31.0055C99.4586 31.0937 99.362 31.1855 99.4163 31.3039C100.02 31.4416 100.629 31.4174 101.238 31.4331C101.547 31.4392 101.831 31.3377 102.137 31.3111C102.325 31.1022 102.56 30.9089 102.704 30.6721C103.173 29.9002 103.867 29.3059 104.327 28.534C104.364 28.4675 104.432 28.418 104.479 28.3624C104.724 28.0677 105.004 27.7971 105.204 27.4818C105.468 27.0747 105.772 26.7135 106.076 26.3511C106.252 26.1421 106.394 25.9223 106.54 25.7C106.633 25.5635 106.583 25.4717 106.43 25.4753C106.035 25.4717 105.64 25.4898 105.24 25.4814C104.69 25.4669 104.146 25.5104 103.606 25.613C102.929 25.7411 102.363 26.0407 101.949 26.6785M100.373 31.6904C99.9128 31.6904 99.4538 31.6965 98.9935 31.688C98.8836 31.6856 98.7664 31.6639 98.6589 31.6409C98.5695 31.6143 98.514 31.4839 98.5635 31.4054C98.6493 31.2797 98.7362 31.1553 98.8317 31.0381C99.8367 29.8531 100.836 28.6717 101.835 27.4866C101.898 27.4178 101.959 27.3441 102.02 27.2656C102.058 27.2112 102.142 27.1544 102.079 27.0759C102.044 27.0421 101.977 27.0203 101.924 27.0179C101.807 27.0095 101.693 27.0216 101.577 27.0204C101.506 27.0179 101.431 27.0095 101.359 26.9902C101.24 26.9636 101.17 26.8138 101.24 26.722C101.364 26.5517 101.511 26.3982 101.638 26.2339C102.288 25.3497 103.217 25.061 104.246 25.0235C105.026 24.9909 105.814 25.009 106.598 25.009C106.769 25.009 106.94 25.009 107.099 25.1202C107.214 25.2047 107.266 25.3352 107.186 25.4669C107.108 25.5973 107.015 25.7218 106.926 25.8426C105.509 27.6461 104.085 29.4496 102.683 31.2628C102.445 31.5684 102.174 31.7134 101.811 31.6989C101.327 31.6989 100.851 31.6989 100.372 31.6989V31.6904H100.373Z" fill="#DBDCDA"/>
<path fill-rule="evenodd" clip-rule="evenodd" d="M116.137 30.526C116.441 30.5755 116.764 30.5175 117.084 30.503C117.475 30.4825 117.782 30.3472 117.978 29.992C118.094 29.7915 118.226 29.597 118.384 29.4364C118.933 28.8988 119.362 28.2646 119.845 27.6823C120.04 27.4468 120.267 27.2366 120.44 26.9902C120.669 26.6616 120.569 26.2593 120.123 26.1542C120.064 26.1385 120.01 26.1265 119.957 26.1265C119.336 26.141 118.715 26.1071 118.095 26.1687C117.747 26.2014 117.466 26.3125 117.248 26.5819C116.975 26.9237 116.714 27.2765 116.412 27.6002C115.834 28.2102 115.377 28.9205 114.827 29.5572C114.766 29.626 114.704 29.7057 114.678 29.7939C114.539 30.1793 114.737 30.4776 115.143 30.5127C115.237 30.5223 115.335 30.5223 115.43 30.5223C115.657 30.5223 115.888 30.5223 116.136 30.5248M115.139 31.2338C113.808 31.2338 112.474 31.2363 111.145 31.2338C111.015 31.2363 110.874 31.2278 110.749 31.1976C110.581 31.1553 110.549 30.985 110.647 30.8412C111.208 30.0041 111.894 29.26 112.49 28.4422C113.021 27.7017 113.621 27.0095 114.176 26.2811C114.446 25.9344 114.829 25.6952 115.228 25.5104C115.343 25.4596 115.487 25.4476 115.615 25.4439C117.277 25.4017 118.931 25.3666 120.587 25.4017C121.655 25.4222 122.729 25.4017 123.802 25.392C124.011 25.3896 124.223 25.392 124.414 25.4886C124.493 25.5333 124.555 25.6191 124.511 25.7314C124.466 25.8378 124.412 25.932 124.328 26.0165C124.063 26.2944 123.831 26.5988 123.617 26.9068C123.433 27.1726 123.213 27.4154 123.006 27.6666C122.74 27.9892 122.464 28.3057 122.232 28.6608C122.055 28.9278 121.827 29.1646 121.62 29.4146C121.413 29.6659 121.185 29.8978 121.014 30.1732C120.733 30.6129 120.306 30.857 119.87 31.0925C119.65 31.2133 119.389 31.2049 119.136 31.2024C118.111 31.2097 117.08 31.2133 116.051 31.2206H115.137V31.2351L115.139 31.2338Z" fill="white"/>
<path fill-rule="evenodd" clip-rule="evenodd" d="M112.351 25.5272C112.333 25.5828 112.328 25.6239 112.306 25.6504C111.795 26.2412 111.408 26.9237 110.86 27.489C110.755 27.5953 110.642 27.7113 110.575 27.8454C110.359 28.3056 109.977 28.6233 109.675 29.0147C109.587 29.1186 109.483 29.2092 109.422 29.3203C109.044 29.9883 108.443 30.4921 108.017 31.1239C107.948 31.2265 107.855 31.2821 107.74 31.3123C107.595 31.3522 107.443 31.4041 107.296 31.4041C106.731 31.4065 106.166 31.4657 105.596 31.357C105.421 31.3183 105.231 31.3304 105.014 31.3232C105.36 30.8702 105.676 30.451 106.055 30.0802C106.655 29.4967 107.101 28.7779 107.65 28.1462C107.825 27.942 108.024 27.7753 108.198 27.5724C108.348 27.3948 108.34 27.2378 108.299 27.0541C108.258 26.8657 108.153 26.763 107.95 26.7243C107.794 26.699 107.786 26.6217 107.863 26.484C108.066 26.1252 108.427 25.9826 108.768 25.8256C109.309 25.5828 109.886 25.5152 110.475 25.5284C111.101 25.5441 111.72 25.5321 112.351 25.5309" fill="white"/>
<path fill-rule="evenodd" clip-rule="evenodd" d="M101.95 26.6797C102.363 26.0419 102.929 25.7423 103.606 25.6142C104.146 25.5103 104.69 25.4681 105.24 25.4826C105.64 25.491 106.035 25.4729 106.429 25.4729C106.583 25.4729 106.633 25.5647 106.537 25.6988C106.394 25.9223 106.252 26.1421 106.076 26.3511C105.772 26.7135 105.468 27.0759 105.204 27.4818C105.003 27.7959 104.723 28.0677 104.479 28.36C104.432 28.418 104.364 28.4663 104.327 28.5327C103.867 29.3046 103.173 29.899 102.705 30.6709C102.56 30.9077 102.325 31.0997 102.137 31.3099C101.831 31.3365 101.544 31.438 101.238 31.4319C100.627 31.4114 100.022 31.4404 99.4164 31.3027C99.362 31.1831 99.4587 31.0925 99.5203 31.0043C99.8682 30.532 100.223 30.0596 100.638 29.6356C101.28 28.9833 101.794 28.2175 102.4 27.5337C102.569 27.3453 102.562 27.1484 102.505 26.9563C102.44 26.751 102.248 26.6942 102.035 26.7159C102.022 26.722 102.009 26.705 101.95 26.6785" fill="white"/>
<path fill-rule="evenodd" clip-rule="evenodd" d="M116.016 30.0572V30.0355C116.283 30.0379 116.55 30.0452 116.819 30.0355C117.094 30.0198 117.336 29.9099 117.534 29.7154C117.641 29.6091 117.741 29.4955 117.841 29.3771C118.376 28.7067 118.918 28.0411 119.454 27.3695C119.559 27.2366 119.669 27.1037 119.774 26.9696C119.834 26.8899 119.878 26.8065 119.823 26.7087C119.777 26.6326 119.697 26.6253 119.622 26.6253C119.129 26.6253 118.634 26.6314 118.135 26.635C117.912 26.635 117.737 26.7425 117.6 26.908C116.823 27.8527 116.051 28.8009 115.278 29.748C115.242 29.7915 115.214 29.8398 115.183 29.8857C115.15 29.9449 115.202 30.0572 115.277 30.0585C115.521 30.0681 115.77 30.0585 116.016 30.0585M116.138 30.5259C115.888 30.5235 115.66 30.5235 115.433 30.5235C115.338 30.5235 115.24 30.5235 115.143 30.5139C114.736 30.4788 114.54 30.1805 114.679 29.7951C114.706 29.7081 114.769 29.6272 114.829 29.5583C115.379 28.9205 115.835 28.2114 116.414 27.6014C116.715 27.2789 116.974 26.9237 117.25 26.5831C117.467 26.3125 117.746 26.205 118.093 26.1699C118.718 26.1083 119.337 26.1434 119.956 26.1301C120.012 26.1277 120.066 26.1397 120.124 26.1542C120.569 26.2617 120.67 26.6652 120.438 26.9914C120.267 27.2378 120.038 27.448 119.846 27.686C119.36 28.267 118.934 28.9012 118.384 29.4412C118.226 29.5982 118.093 29.7927 117.978 29.9944C117.784 30.3496 117.472 30.4873 117.084 30.5054C116.764 30.5199 116.442 30.5767 116.137 30.5284L116.138 30.5259Z" fill="#DBDCDA"/>
<path fill-rule="evenodd" clip-rule="evenodd" d="M116.015 30.0571C115.771 30.0571 115.52 30.0656 115.276 30.0571C115.202 30.0547 115.149 29.9436 115.182 29.8844C115.213 29.8385 115.243 29.7853 115.277 29.7467C116.05 28.7996 116.822 27.8513 117.599 26.9067C117.735 26.7424 117.909 26.6349 118.134 26.6337C118.634 26.6289 119.129 26.624 119.621 26.624C119.696 26.624 119.776 26.6313 119.824 26.7074C119.878 26.8064 119.836 26.8886 119.774 26.9683C119.669 27.1024 119.559 27.2341 119.454 27.3681C118.918 28.0398 118.376 28.7054 117.84 29.3758C117.741 29.4954 117.641 29.609 117.534 29.7141C117.336 29.9085 117.094 30.0185 116.819 30.0342C116.55 30.0451 116.283 30.0378 116.016 30.0342V30.0559" fill="#2B2523"/>
</svg>
