<svg width="130" height="50" viewBox="0 0 130 50" fill="none" xmlns="http://www.w3.org/2000/svg">
<rect width="130" height="50" fill="white"/>
<g clip-path="url(#clip0_982_3912)">
<path d="M34.8244 21.1193C34.8244 21.1193 34.8108 21.1008 34.7419 21.1008H30.2702C30.2382 21.1008 30.2345 21.107 30.2086 21.1488L27.9777 24.7383C27.8952 24.8675 27.7882 24.9462 27.6663 24.9708C27.5408 24.9954 27.4005 24.9561 27.2627 24.8576L22.8759 21.1168C22.8636 21.1061 22.8504 21.1008 22.8365 21.1008H18.8225C18.7868 21.1008 18.777 21.1106 18.7696 21.1328L14.9303 27.2559C14.8971 27.3224 14.9057 27.3458 14.9094 27.3507C14.9192 27.3654 14.9525 27.3753 15.0017 27.3753H19.3812C19.3959 27.3753 19.4255 27.3679 19.4341 27.3433L21.5506 23.9347C21.6355 23.8117 21.7364 23.744 21.8521 23.7292C21.8668 23.728 21.8828 23.7268 21.8988 23.7268C22.0477 23.7268 22.2151 23.8104 22.4095 23.9815C22.8931 24.4085 25.9682 27.123 26.1848 27.3138C26.2352 27.3581 26.2648 27.3753 26.33 27.3753H30.8842C30.9494 27.3753 30.9556 27.3691 30.9912 27.3113L34.7985 21.2017C34.8342 21.1402 34.8256 21.1205 34.8244 21.1193ZM4.00195 22.3436H4.84487L5.00484 21.9622H5.42568L4.85471 24.3002H4.34281L4.16192 25.0533H6.57131L6.79157 24.3002H6.18L6.7522 21.9523H7.07336L7.08321 22.3436H7.97658L8.24729 21.0688H4.26283L4.00195 22.3436ZM8.5377 21.0688L8.33712 21.9523H8.64845L8.87979 25.073L10.4561 25.0533L12.9442 21.0688H11.0578L10.8166 21.9425L11.1477 21.9523L10.0537 23.7994L10.0439 21.9523H10.4155L10.6161 21.0688H8.53893H8.5377ZM15.7043 22.3129H14.9611L14.9808 21.9917C14.9808 21.9917 14.3778 21.801 14.2277 22.1111C14.0874 22.4125 14.5993 22.6033 14.7593 22.6833C15.5727 23.0647 15.5825 23.5557 15.4816 23.9076C14.8799 25.7239 12.0398 24.961 12.0398 24.961L12.3511 23.7969H13.1645L13.1436 24.1587C13.3442 24.2793 14.0173 24.1784 14.0468 23.9076C14.0665 23.6369 13.8561 23.6062 13.1743 23.2149C12.4914 22.8334 12.7326 22.0508 12.8532 21.8699C13.7564 20.5249 16.0046 21.1377 16.0046 21.1377L15.7031 22.3116L15.7043 22.3129ZM63.5167 23.5434L62.6319 24.9696C62.4141 25.3191 62.0881 25.5 61.6537 25.4864H56.1409C55.8025 25.4864 55.688 25.0877 55.8616 24.8342L56.7931 23.3465C57.0109 23.013 57.305 22.8309 57.6938 22.8309L63.2066 22.8617C63.6188 22.8617 63.673 23.2407 63.5167 23.5446V23.5434ZM64.3645 27.3765C65.3121 27.3765 66.0418 26.9508 66.6016 26.0869L68.7046 22.7251C69.0996 22.0926 68.8129 21.1008 67.9897 21.1008H54.9916C54.0293 21.1008 53.2824 21.5413 52.7397 22.3756C52.7397 22.3756 51.2077 24.8109 50.6675 25.7227C50.1285 26.6333 50.585 27.3778 51.4132 27.3778H64.3658L64.3645 27.3765ZM84.64 21.0996C85.2504 21.0996 86.1536 21.1414 85.8669 21.9794C85.7734 22.2526 85.494 22.7682 85.0129 23.5274C84.7914 23.9064 84.25 24.7124 83.9411 24.9536C83.5215 25.2723 82.8385 25.4397 81.8603 25.4544L80.5867 25.4704L83.8833 27.3728H78.2302C78.1687 27.3728 78.0641 27.3285 78.0333 27.3138L75.0431 25.5147H72.2166C72.2166 25.5147 71.2063 27.0997 71.1103 27.2498C71.0648 27.3211 71.0082 27.3667 70.9171 27.3667H67.1898C67.0422 27.3667 67.0422 27.2892 67.1049 27.1858C67.2981 26.8782 70.5652 21.6582 70.8322 21.2312C70.9097 21.1057 70.9196 21.0983 71.0722 21.0983H84.64V21.0996ZM79.5616 24.0898H79.5936C79.7954 24.0898 79.9812 23.9839 80.1215 23.7711L80.4624 23.2555C80.5657 23.0549 80.4624 22.8309 80.2298 22.8309H73.708L72.8848 24.0898H79.5629H79.5616ZM102.921 22.5787C103.715 21.1377 102.462 21.0996 101.148 21.0996L89.3702 21.1106C88.3489 21.1549 87.5933 21.5364 87.09 22.2415C86.9891 22.3756 86.9005 22.511 86.8009 22.655C86.5609 23.002 86.3086 23.3724 86.0576 23.7514C86.0453 23.7846 86.0195 23.808 86.0072 23.8412C85.7807 24.1771 85.5789 24.4909 85.4153 24.7481C85.3771 24.7924 85.3525 24.849 85.3144 24.8933C84.987 25.4187 84.784 25.7165 84.7077 25.895C84.3595 26.6173 84.7742 27.3728 85.7032 27.3728H92.4539C92.5671 27.3728 92.6557 27.4061 92.7185 27.4848L93.837 28.9947H97.3305L94.3908 25.1C94.3083 25.0016 94.1607 24.9634 94.0327 25.0114C93.6451 25.1529 93.0704 25.463 92.9941 25.4458C92.9437 25.4347 90.2599 25.4384 90.2599 25.4384C89.9572 25.4052 89.844 25.2489 89.9449 24.9905L91.1397 23.1878C91.152 23.1767 91.152 23.1656 91.1656 23.1546C91.2788 23.0204 91.4424 22.9306 91.6565 22.8863C91.707 22.8863 91.7451 22.8752 91.7956 22.8752H97.3724C97.9803 22.8838 97.9999 23.0795 97.5816 23.7538C97.1632 24.4282 96.9724 24.705 96.6119 25.1972C96.4125 25.4126 95.9634 25.4655 95.9634 25.4655L97.4634 27.5673C97.4634 27.5673 99.0767 27.4257 99.2834 27.3642C99.6981 27.2449 100.126 27.0037 100.659 26.3232C101.486 25.1136 102.731 22.8974 102.922 22.5799L102.921 22.5787ZM123.605 23.2739L118.963 23.2838L118.777 23.6591L122.355 23.6468C122.928 23.6443 123.718 23.6763 123.398 24.4429C123.249 24.8293 122.928 25.3461 122.705 25.7239C122.441 26.1755 121.742 26.2284 121.239 26.2297L115.4 26.242L116.062 25.1554L120.695 25.1468C121.043 25.121 121.24 25.0299 121.396 24.7358L117.06 24.7543C116.604 24.7567 116.474 24.5168 116.676 24.1661L117.727 22.3424C117.848 22.1295 117.864 22.1111 118.139 22.1098C120.19 22.1061 122.24 22.0975 124.292 22.0975L123.602 23.2715L123.605 23.2739ZM114.276 26.2444L107.354 26.2555C107.699 25.7116 108.045 25.1689 108.391 24.6263C108.792 23.9938 109.309 23.6492 110.068 23.6775L113.389 23.6702C113.702 23.6702 114.239 23.6628 114.321 23.3035L109.274 23.3071C109.515 22.9146 109.756 22.5221 109.998 22.1295L116.028 22.1258C116.576 22.1308 116.548 22.2181 116.33 22.6857C115.653 24.0184 114.862 24.7395 113.201 24.7567L110.857 24.7813C110.438 24.785 109.914 24.8232 109.706 25.2096C111.441 25.1997 113.177 25.1899 114.912 25.18L114.275 26.2457L114.276 26.2444ZM104.605 26.2629L106.486 23.1472C106.615 22.9331 106.739 22.7165 106.867 22.5024C107.1 22.116 107.139 22.1394 107.553 22.1332L108.738 22.1308L106.253 26.2604L104.605 26.2629ZM125.36 21.102H106.724C106.22 21.102 105.749 21.3518 105.474 21.7653L102.715 26.5176C102.478 26.8745 102.74 27.347 103.176 27.347H122.399C123.047 27.347 123.645 27.0061 123.964 26.4549L125.918 22.0385C126.159 21.6201 125.851 21.1033 125.36 21.1033V21.102Z" fill="#231F20"/>
<path fill-rule="evenodd" clip-rule="evenodd" d="M43.7093 21.1008C43.4656 21.1008 36.0923 21.1008 35.9052 21.1008C35.8277 21.1008 35.8203 21.1279 35.7797 21.1919C35.7391 21.2559 35.6259 21.4368 35.4881 21.6546C35.4696 21.6693 35.4573 21.6927 35.4352 21.726C35.3146 21.9167 34.5479 23.1337 34.4298 23.3207C34.3621 23.4216 34.4077 23.5275 34.5307 23.5275H38.5176C39.2695 23.5275 39.3015 23.7834 38.9434 24.3814C38.877 24.4922 38.5853 24.993 38.2432 25.548C37.6353 26.5349 36.9746 27.6054 36.8896 27.7433C36.8257 27.8466 36.8724 27.9574 37.0041 27.9574H39.5624C39.7137 27.9574 39.854 27.8798 39.934 27.7519L43.8902 21.4282C43.9787 21.2854 43.8766 21.1021 43.7093 21.1021V21.1008ZM52.4362 21.0996C52.4362 21.0996 45.1195 21.0996 44.8549 21.0996C44.7072 21.0996 44.5706 21.1759 44.4931 21.3002L44.1855 21.7912C44.1744 21.8047 44.1609 21.8182 44.151 21.833L42.1846 24.977H42.1932L40.5013 27.6817C40.4274 27.8011 40.5123 27.9561 40.6526 27.9561H43.3241C43.4373 27.9561 43.5382 27.8995 43.5973 27.8048C43.8016 27.4762 45.3422 25.009 45.987 23.9754C46.2466 23.6222 46.5223 23.525 46.8828 23.525H50.9916C51.0765 23.525 51.1441 23.4918 51.1958 23.4093L51.5047 22.9183C51.5158 22.906 51.5268 22.8925 51.5379 22.8765L52.5408 21.283C52.6085 21.1661 52.574 21.1008 52.4387 21.1008L52.4362 21.0996Z" fill="#ED1B31"/>
</g>
<defs>
<clipPath id="clip0_982_3912">
<rect width="122" height="7.99478" fill="white" transform="translate(4 21)"/>
</clipPath>
</defs>
</svg>
