<svg width="130" height="50" viewBox="0 0 130 50" fill="none" xmlns="http://www.w3.org/2000/svg">
<rect width="130" height="50" fill="white"/>
<path fill-rule="evenodd" clip-rule="evenodd" d="M48.0608 31.5699C48.9745 30.8367 49.7322 29.6598 51.1029 29.805C53.531 30.1025 55.3597 29.0718 57.0301 27.2999C57.18 27.1547 57.3298 27.0095 57.4797 26.719C57.18 26.5738 56.873 26.5738 56.7231 26.5738H53.531C52.4674 26.5738 51.5598 26.8642 50.9531 27.5974C48.8247 29.3623 46.8462 31.1332 44.8687 32.8981C43.6552 33.9288 42.2907 34.6629 40.6203 34.5177C39.7065 34.3725 38.7917 34.5177 37.5781 34.5177C37.8852 34.075 38.035 33.7775 38.342 33.6323C40.92 31.1342 43.6552 28.7743 46.2404 26.2763C47.7621 24.9552 49.2753 24.5114 51.2538 24.5114H64.1656C64.3155 24.5114 64.6152 24.6566 64.6152 24.8089L64.4654 25.2446C63.7087 26.1301 62.9521 26.8642 62.0445 27.5974C60.8227 28.7733 59.4593 29.9502 58.0875 31.1332C57.3309 31.7212 56.4161 32.0116 55.3597 32.0116C53.3812 31.8664 51.2528 32.0116 49.1255 31.8664H48.219L48.0618 31.5689L48.0608 31.5699Z" fill="#231F20"/>
<path fill-rule="evenodd" clip-rule="evenodd" d="M33.4825 24.6573C31.811 26.4293 30.1406 27.8886 28.619 29.5082V29.6605H32.1108C33.1744 29.8057 34.0893 29.363 34.696 28.775C35.9096 27.7443 36.9743 26.8649 38.0379 25.8413C38.9517 24.9559 40.0164 24.6573 41.23 24.5121C42.2936 24.3669 43.3583 24.5121 44.422 24.5121C44.5719 24.5121 44.7218 24.5121 45.0288 24.6573C44.8716 24.9548 44.7218 25.1001 44.422 25.3976C42.5934 27.0092 40.7731 28.774 38.9517 30.5389C37.8881 31.5696 36.6735 32.0133 35.1529 32.0133C30.5964 32.0133 26.0337 32.0133 21.4772 31.8681C21.0203 31.8681 20.7206 31.7229 20.2637 31.5706C20.4135 31.2801 20.7206 30.8374 21.0203 30.5399C22.6918 28.9203 24.3622 27.4539 26.0337 25.8423C26.7976 25.1021 27.8623 24.6583 29.0759 24.5131H32.8747C33.0245 24.5131 33.1744 24.6583 33.4814 24.6583L33.4825 24.6573Z" fill="#231F20"/>
<path fill-rule="evenodd" clip-rule="evenodd" d="M98.1938 28.6287C98.8006 27.8885 99.5656 27.4528 100.322 27.4528H101.994C102.6 27.4528 102.907 27.1553 103.365 26.5744C103.058 26.5744 102.759 26.4292 102.452 26.4292H99.2596C98.5029 26.4292 97.7463 26.7196 97.1312 27.3005C96.5244 27.7433 95.9177 28.3312 95.3099 28.9202C95.16 29.0725 95.0101 29.2177 94.5532 29.6604C96.5244 29.8056 98.045 29.6604 99.7165 29.6604C101.388 29.8056 103.058 29.6604 104.73 29.6604C104.73 29.9509 104.58 30.1031 104.58 30.1031C103.366 31.279 101.995 32.0132 100.323 32.0132H87.5613C87.2616 32.0132 86.9546 31.868 86.8047 31.7228C86.8047 31.5705 86.9546 31.2801 87.1044 31.1348C88.7759 29.5081 90.6035 27.8895 92.275 26.2769C93.6384 24.9558 95.3099 24.512 97.1312 24.512H107.772C108.229 24.512 108.679 24.8095 109.135 24.9548C108.836 25.2452 108.836 25.6879 108.529 25.9854C107.772 26.8638 107.007 27.597 106.101 28.186C105.644 28.4835 104.887 28.7739 104.272 28.7739C102.6 28.9192 100.78 28.7739 99.1087 28.7739C98.8016 28.7739 98.6518 28.7739 98.1949 28.6287H98.1938Z" fill="#231F20"/>
<path fill-rule="evenodd" clip-rule="evenodd" d="M92.5737 24.8098C91.3602 25.8404 90.2955 27.1555 88.317 27.0103C86.8037 26.8651 85.2821 27.0103 83.9104 27.0103C83.1537 27.0103 82.6968 27.1555 82.089 27.7435C81.0253 28.6289 79.9606 29.6606 78.897 30.6913C77.8333 31.5697 76.7686 32.1577 75.2553 32.0125C74.1917 31.8672 73.1269 32.0125 71.9134 32.0125L71.3066 31.8672L71.6064 31.2793C73.128 29.9501 74.6485 28.6289 76.1629 27.2997L76.32 27.0093C75.7133 26.4284 75.2564 25.8404 74.6486 25.3977C74.4914 25.2454 74.4914 24.955 74.4914 24.8098C74.6485 24.6575 74.7984 24.5123 75.0982 24.5123H77.9905C78.897 24.6575 79.5037 24.367 80.1188 23.7791C80.4186 23.3363 80.7256 23.0388 81.0253 22.8936C81.6321 22.5961 82.2389 22.4509 82.6968 22.4509C84.0686 22.3057 85.432 22.3057 86.8037 22.3057H87.4105L87.5603 22.5961C86.9536 23.1911 86.4967 23.7801 85.739 24.5133H92.5727V24.8108L92.5737 24.8098Z" fill="#231F20"/>
<path fill-rule="evenodd" clip-rule="evenodd" d="M4 31.5697C5.21354 30.3938 5.9785 28.9194 8.10688 29.0716H10.6849C12.0566 29.0716 13.2701 28.6289 14.1839 27.7424C15.8554 26.4284 17.5258 25.0992 19.1973 23.6258C20.1038 22.7474 21.0187 22.3046 22.3894 22.3046C23.453 22.4499 24.3606 22.3046 25.4242 22.3046C25.7313 22.3046 25.8811 22.4499 26.1882 22.5951C26.031 22.8926 26.031 23.1901 25.7313 23.3353C23.453 25.3977 21.1675 27.5972 18.8892 29.6596C17.9827 30.538 17.0679 31.4245 15.8544 31.722C15.2476 31.8672 14.6408 31.8672 14.0257 31.8672C11.1407 32.0124 8.25571 32.0124 5.37069 31.8672H4.14987L4 31.5697Z" fill="#231F20"/>
<path fill-rule="evenodd" clip-rule="evenodd" d="M126 24.6576C125.85 24.9552 125.543 25.1004 125.393 25.3979C124.479 25.9858 123.564 26.719 122.808 27.4532C122.351 27.7436 122.051 27.7436 121.744 27.3009C121.137 26.5748 120.381 26.4296 119.466 26.5748H117.038C116.274 26.5748 115.666 26.72 115.059 27.3009C113.846 28.4849 112.474 29.6608 111.261 30.8367C110.504 31.5699 109.589 32.0126 108.376 32.0126C107.462 31.8674 106.554 32.0126 105.64 31.8674H104.727C105.034 31.4247 105.183 31.2794 105.333 30.9819C107.162 29.3623 108.982 27.7436 110.804 25.9858C111.867 24.9552 113.239 24.5114 114.752 24.5114H125.086C125.393 24.5114 125.693 24.5114 126 24.6566V24.6576Z" fill="#231F20"/>
<path fill-rule="evenodd" clip-rule="evenodd" d="M60.377 31.5695C60.9837 31.1338 61.4406 30.6911 62.0484 30.1031C63.8614 28.4835 65.6828 26.8648 67.5114 25.2452C68.1182 24.6572 68.8748 24.512 69.6325 24.512H73.1316C73.4313 24.512 73.7384 24.6572 74.0381 24.6572C73.7384 25.1 73.5885 25.2452 73.2815 25.5427C71.4601 27.2995 69.4827 29.0714 67.5114 30.8363C66.7475 31.5695 65.84 32.0122 64.6191 32.0122H61.2845C60.9848 32.0122 60.6777 31.867 60.5279 31.867L60.378 31.5695H60.377Z" fill="#231F20"/>
<path fill-rule="evenodd" clip-rule="evenodd" d="M12.3549 16.1184H14.9402C14.7904 16.4159 14.9402 17.0039 14.3335 17.1491L14.1836 17.3014C14.1836 17.8894 14.1836 18.4773 14.3335 19.0663C14.7903 18.4783 15.0901 17.8904 15.3971 17.3014C15.547 17.1491 15.3971 16.7064 15.3971 16.4159L15.854 15.9732H17.8252C17.2185 17.1491 16.6117 18.0356 16.0039 19.0663C15.854 19.3567 15.547 19.509 15.547 19.7994C15.0901 20.8301 14.3335 20.9754 13.2687 20.9754C12.8118 20.8301 12.662 20.8301 12.662 20.3874C12.662 19.6542 12.662 18.921 12.5121 18.1798C12.5121 17.7371 12.2051 17.4466 12.2051 17.0039C12.2051 16.7064 12.2051 16.4159 12.3549 16.1184Z" fill="#231F20"/>
<path fill-rule="evenodd" clip-rule="evenodd" d="M21.7853 16.1186C21.6281 16.4162 21.6281 16.8589 21.4782 17.1493L21.1712 17.4468C20.8715 17.4468 20.7216 17.3016 20.4146 17.3016C20.2647 17.1493 20.1075 17.1493 19.8078 17.1493L19.5008 17.4468L19.9577 17.8896H20.1075C20.5644 18.18 21.1712 18.4775 21.1712 19.2107C21.0213 19.9509 20.5644 20.5399 19.8078 20.6851C18.894 21.1279 17.8293 20.9756 16.7656 20.8303C16.9703 19.8474 17.3776 19.407 17.9875 19.5092C18.2872 19.6544 18.4371 19.7997 18.7441 19.7997L19.201 19.5092L18.894 19.0665L18.4371 18.769C17.3734 18.181 17.2236 17.1493 18.2872 16.5614C18.894 16.1186 19.8088 16.1186 20.5655 15.9734C20.8725 15.8282 21.3294 15.9734 21.7873 16.1186H21.7853Z" fill="#231F20"/>
<path fill-rule="evenodd" clip-rule="evenodd" d="M6.58203 17.4468C6.7319 17.004 6.7319 16.5613 6.88177 16.1176H11.9024C11.7453 16.5603 11.7453 17.003 11.5954 17.592C11.1385 17.4468 10.6816 17.8895 10.3819 17.1492L9.92498 17.4468C9.77511 18.1799 9.61796 19.0664 9.31821 19.9519C9.61796 19.9519 9.77511 19.9519 10.0749 20.0971C9.92498 20.3875 9.92498 20.5398 9.77511 20.8303H6.73294C6.88281 20.5398 6.88281 20.3875 7.03997 19.9519C7.64674 20.0971 7.79661 19.7996 7.79661 19.3568C7.94648 18.6237 8.10364 17.8905 8.40338 17.1492C7.79661 17.3015 7.18984 17.4468 6.7319 17.592L6.58203 17.4468Z" fill="#231F20"/>
</svg>
